<?xml version="1.0" encoding="utf-8"?><svg version="1.1" xmlns="http://www.w3.org/2000/svg" viewBox="0 0 90 45"><defs><style>.cls-1{fill:#a2aebf;}</style></defs><title>PCI</title><path class="cls-1" d="M34,19.21h-.58v3.33H34a3.3,3.3,0,0,0,1.81-.41,1.45,1.45,0,0,0,.63-1.3Q36.42,19.21,34,19.21Z"/><path class="cls-1" d="M59.74,7,21.44,9.11,32.08,38,68.56,26.58ZM40.49,22.71a4,4,0,0,1-1.37,1.39,6.65,6.65,0,0,1-2.13.84,12.62,12.62,0,0,1-2.76.28H33.5v3.73H28.75V16.52h5.56a9.6,9.6,0,0,1,4.89,1.05A3.47,3.47,0,0,1,41,20.77,3.75,3.75,0,0,1,40.49,22.71ZM52.7,28.94a13.32,13.32,0,0,1-2.48.21,12.54,12.54,0,0,1-3.51-.45,7.75,7.75,0,0,1-2.61-1.28,5.47,5.47,0,0,1-1.63-2,6.17,6.17,0,0,1-.56-2.65,5.8,5.8,0,0,1,.59-2.63,5.94,5.94,0,0,1,1.68-2,7.91,7.91,0,0,1,2.58-1.31,11.2,11.2,0,0,1,3.29-.46,12.3,12.3,0,0,1,2.53.19,7.24,7.24,0,0,1,1.37.4v3.33a7.76,7.76,0,0,0-1.58-.66,6.55,6.55,0,0,0-1.87-.26,3.84,3.84,0,0,0-2.62.88,3.18,3.18,0,0,0-1,2.52,3.33,3.33,0,0,0,.31,1.49A3.1,3.1,0,0,0,48,25.28a3.67,3.67,0,0,0,1.25.64,5.29,5.29,0,0,0,1.54.22A7.71,7.71,0,0,0,52.5,26a13.23,13.23,0,0,0,1.74-.52v3.11A11.41,11.41,0,0,1,52.7,28.94Zm3.81-18.3a3.31,3.31,0,0,1,4.11,0,2.49,2.49,0,0,1,.83,2,2.46,2.46,0,0,1-.83,2,3.32,3.32,0,0,1-4.11,0,2.46,2.46,0,0,1-.83-2A2.49,2.49,0,0,1,56.52,10.64Zm4.43,18.31H56.18V16.52h4.77Z"/></svg>