<?xml version="1.0" encoding="utf-8"?>
<svg version="1.1" xmlns="http://www.w3.org/2000/svg" viewBox="0 0 90 45">
    <style>.st0{fill:#a2aebf}.st1{fill:#fff}.st2{fill:#b8c0cb}.st3{fill:#ccd2dc}</style>
    <path class="st0"
          d="M22.1 9.4c0-1.5 1.3-2.8 2.9-2.8 1.6 0 2.9 1.3 2.9 2.8 0 1.6-1.3 2.8-2.9 2.8-1.6 0-2.9-1.2-2.9-2.8m-2 20.3h1.4c.4 0 .9-.5.9-.9V17.9c0-.4-.4-1-.9-1H20v-3.2h6.8c.6 0 .9.6.9 2v13.1c0 .4.5.9.9.9H30v3h-9.9v-3zM31.2 23.3c0-6.1 4.4-9.8 10.1-9.8 3 0 4.7.7 5.8 1.3v3.9h-2c-.8-.7-2.1-1.4-3.8-1.4-2.7 0-4.8 2-4.8 6 0 4.1 1.9 5.8 4.6 5.8 2.2 0 3.4-.8 4.2-1.5h1.8v3.6c-1 .8-3.1 1.8-6 1.8-6.2 0-9.9-3.6-9.9-9.7M63.2 23.3c0-4.1-1.8-6.1-4.4-6.1-2.6 0-4.4 2-4.4 6.1s1.8 5.9 4.4 5.9c2.6 0 4.4-1.8 4.4-5.9m-14.1 0c0-6.1 4.4-9.9 9.7-9.9 5.4 0 9.7 3.8 9.7 9.9 0 6.1-4.4 9.7-9.7 9.7s-9.7-3.6-9.7-9.7M70.1 30.1c0-1.6 1.3-2.9 3-2.9s3 1.3 3 2.9c0 1.6-1.4 2.9-3 2.9-1.7 0-3-1.3-3-2.9"/>
</svg>