<?xml version="1.0" encoding="utf-8"?><svg version="1.1" data-name="Layer 1" xmlns="http://www.w3.org/2000/svg" viewBox="0 0 90 45"><defs><style>.cls-1{fill:#a2aebf;}.cls-2{fill:#b8c0cb;}.cls-3{fill:#ccd2dc;}</style></defs><title>MC</title><path id="_Compound_Path_" data-name="&lt;Compound Path&gt;" class="cls-1" d="M31.13,39.32V37.07a1.33,1.33,0,0,0-1.41-1.42,1.39,1.39,0,0,0-1.26.64,1.31,1.31,0,0,0-1.18-.64,1.18,1.18,0,0,0-1,.53v-.44h-.78v3.58h.79v-2a.84.84,0,0,1,.88-1c.52,0,.78.34.78.94v2h.79v-2a.84.84,0,0,1,.88-1c.53,0,.79.34.79.94v2Zm11.63-3.58H41.49V34.65H40.7v1.09H40v.71h.73v1.63c0,.83.32,1.32,1.24,1.32a1.83,1.83,0,0,0,1-.28l-.22-.67a1.44,1.44,0,0,1-.69.2c-.39,0-.52-.24-.52-.6V36.45h1.27Zm6.64-.09a1.06,1.06,0,0,0-.94.52v-.43h-.77v3.58h.78v-2c0-.59.25-.92.76-.92a1.27,1.27,0,0,1,.49.09l.24-.73a1.66,1.66,0,0,0-.55-.1Zm-10,.37a2.68,2.68,0,0,0-1.46-.37c-.91,0-1.49.43-1.49,1.15s.43.94,1.23,1.06l.37.05c.43.06.63.17.63.37s-.28.43-.82.43a1.91,1.91,0,0,1-1.19-.37l-.37.61a2.58,2.58,0,0,0,1.55.46c1,0,1.63-.49,1.63-1.17s-.47-1-1.25-1.07l-.37-.05c-.34,0-.61-.11-.61-.35s.25-.42.68-.42a2.31,2.31,0,0,1,1.12.31Zm20.85-.37a1.06,1.06,0,0,0-.94.52v-.43H58.5v3.58h.78v-2c0-.59.25-.92.76-.92a1.27,1.27,0,0,1,.49.09l.24-.73a1.66,1.66,0,0,0-.55-.1Zm-10,1.88a1.81,1.81,0,0,0,1.91,1.88A1.87,1.87,0,0,0,53.38,39L53,38.35a1.57,1.57,0,0,1-.94.32,1.15,1.15,0,0,1,0-2.29,1.57,1.57,0,0,1,.94.32l.37-.63a1.87,1.87,0,0,0-1.29-.43,1.81,1.81,0,0,0-1.91,1.88Zm7.29,0V35.74H56.7v.43a1.36,1.36,0,0,0-1.13-.52,1.88,1.88,0,0,0,0,3.76,1.36,1.36,0,0,0,1.13-.52v.43h.78Zm-2.9,0a1.08,1.08,0,1,1,1.09,1.15,1.07,1.07,0,0,1-1.09-1.15Zm-9.39-1.88a1.88,1.88,0,0,0,.05,3.76,2.17,2.17,0,0,0,1.47-.5l-.38-.58a1.7,1.7,0,0,1-1,.37,1,1,0,0,1-1.07-.88h2.66c0-.1,0-.19,0-.3a1.72,1.72,0,0,0-1.7-1.88Zm0,.7a.89.89,0,0,1,.91.87H44.22a.92.92,0,0,1,1-.87ZM64.7,37.53V34.3h-.78v1.87a1.36,1.36,0,0,0-1.13-.52,1.88,1.88,0,0,0,0,3.76,1.36,1.36,0,0,0,1.13-.52v.43h.78Zm-2.9,0a1.08,1.08,0,1,1,1.09,1.15,1.07,1.07,0,0,1-1.09-1.15Zm-26.29,0V35.74h-.78v.43a1.36,1.36,0,0,0-1.13-.52,1.88,1.88,0,0,0,0,3.76,1.36,1.36,0,0,0,1.13-.52v.43h.78Zm-2.9,0a1.08,1.08,0,1,1,1.09,1.15A1.07,1.07,0,0,1,32.62,37.53Z"/><g id="_Group_" data-name="&lt;Group&gt;"><rect class="cls-2" x="39.1" y="8.47" width="11.79" height="21.19"/><path id="_Path_" data-name="&lt;Path&gt;" class="cls-1" d="M39.85,19.07A13.45,13.45,0,0,1,45,8.47a13.47,13.47,0,1,0,0,21.19A13.45,13.45,0,0,1,39.85,19.07Z"/><path class="cls-3" d="M66.8,19.07A13.47,13.47,0,0,1,45,29.66,13.48,13.48,0,0,0,45,8.47,13.47,13.47,0,0,1,66.8,19.07Z"/></g></svg>