<?xml version="1.0" encoding="utf-8"?><!DOCTYPE svg PUBLIC "-//W3C//DTD SVG 1.1//EN"
        <!--"http://www.w3.org/Graphics/SVG/1.1/DTD/svg11.dtd"-->
        >
<svg xmlns="http://www.w3.org/2000/svg" version="1.1" viewBox="0 0 90 45">
    <rect fill="#a2aebf" x="18.5" y="8.18" width="53" height="28.82" rx="2.06" ry="2.06"/>
    <path fill="#fff"
          d="M58.08,8H39.47L30.73,31.2H49.34ZM49.46,25.5v3.14a.94.94,0,0,0-.58-.25c-.45,0-2,1.41-4.71,1.41-4.63,0-8.05-3.5-8.05-8.43,0-5.09,3.62-8.52,8.1-8.52,2.52,0,3.07.83,4,.83a.94.94,0,0,0,.58-.25v3.14a5.15,5.15,0,0,0-4.13-2.05c-3.45,0-6,2.85-6,7,0,3.88,2.37,6.65,5.79,6.65a6.91,6.91,0,0,0,5-2.63"/>
    <path fill="#fff"
          d="M24.47,28.11c0,.94-.15,1-.59,1.36h3.37c-.44-.31-.59-.42-.59-1.36V21.82H31.8c1.16,0,1.16.25,1.38.51V19.75c-.26.31-.31.51-1.44.51H26.66V14.75h5.73c1.2,0,1.27.45,1.49.71V13.19h-10c.44.31.59.42.59,1.36Z"/>
    <path fill="#fff"
          d="M51.89,28.13a2.15,2.15,0,0,1-1,1.34h3c-.09-.2-.48-.09-.48-.83a1.46,1.46,0,0,1,.13-.54L55.11,24h6.33L63,28.24a2,2,0,0,1,.15.54c0,.45-.33.49-.5.69h3.57c-.44-.31-.57-.36-.9-1.23L59.69,13.19H56.86a1.12,1.12,0,0,1,.31.69,1.45,1.45,0,0,1-.11.54Zm3.72-5.62,2.65-7.12,2.67,7.12Z"/>
    <path fill="#fff"
          d="M24,34.8a.18.18,0,0,1-.08.16h.54a.18.18,0,0,1-.08-.16v-.65h.47l.12,0a.21.21,0,0,1,.07.06v-.43s0,.08-.18.08h-.47v-.52h.51c.18,0,.17,0,.22.09V33.1H23.88a.17.17,0,0,1,.08.16Zm1.41,0a.19.19,0,0,1-.08.16h.54a.18.18,0,0,1-.08-.16V33.26a.17.17,0,0,1,.08-.16h-.54a.17.17,0,0,1,.08.16Zm.8,0a.18.18,0,0,1-.08.16h.42a.18.18,0,0,1-.08-.16V33.57h0l1,1.39h.33v-1.7a.18.18,0,0,1,.08-.16h-.42a.18.18,0,0,1,.08.16v1.13h0l-.9-1.29h-.48a.17.17,0,0,1,.08.16Zm1.94-.08A.61.61,0,0,1,28,35h.46s-.06,0-.06-.08a.61.61,0,0,1,0-.16l.11-.31h.67l.12.33a.45.45,0,0,1,0,.15s0,.06-.06.08h.55s-.09-.07-.15-.23l-.61-1.63h-.47s.06,0,.06.08a.55.55,0,0,1-.06.18Zm.49-.55.25-.68.26.68Zm1.5.63A.18.18,0,0,1,30,35h.42a.18.18,0,0,1-.08-.16V33.57h0l1,1.39h.33v-1.7a.18.18,0,0,1,.08-.16h-.42a.18.18,0,0,1,.08.16v1.13h0l-.9-1.29H30a.17.17,0,0,1,.08.16Zm3.22-.36c-.06.06-.24.29-.48.29s-.51-.31-.51-.68.19-.73.53-.73a.48.48,0,0,1,.4.26v-.48s0,0-.07,0a1.37,1.37,0,0,0-.41-.09.9.9,0,0,0-.83,1,.88.88,0,0,0,.81,1,1.23,1.23,0,0,0,.5-.15s0,0,.05,0Zm.3.36a.18.18,0,0,1-.08.16h.54A.18.18,0,0,1,34,34.8V33.26a.17.17,0,0,1,.08-.16h-.54a.17.17,0,0,1,.08.16Zm.8-.08a.61.61,0,0,1-.15.24h.46s-.06,0-.06-.08a.63.63,0,0,1,0-.16l.11-.31h.67l.12.33a.44.44,0,0,1,0,.15s0,.06-.06.08h.55c-.05,0-.09-.07-.15-.23L35.4,33.1h-.47s.06,0,.06.08a.55.55,0,0,1-.06.18Zm.49-.55.25-.68.26.68Zm1.5.63a.18.18,0,0,1-.08.16h1.23v-.35c0,.05,0,.08-.23.08h-.55V33.26a.17.17,0,0,1,.08-.16h-.54a.17.17,0,0,1,.08.16Zm3.3-.36c-.05.06-.24.29-.48.29s-.51-.31-.51-.68.19-.73.53-.73a.48.48,0,0,1,.4.26v-.48s0,0-.07,0a1.38,1.38,0,0,0-.41-.09.9.9,0,0,0-.82,1,.88.88,0,0,0,.81,1,1.24,1.24,0,0,0,.5-.15s0,0,.05,0Zm1.12.56a1,1,0,1,0-.94-1,.94.94,0,0,0,.94,1m-.56-1c0-.38.22-.71.56-.71s.55.32.55.71a.63.63,0,0,1-.55.7c-.33,0-.56-.3-.56-.7M42,34.8a.18.18,0,0,1-.08.16h.42a.18.18,0,0,1-.08-.16V33.57h0l1,1.39h.33v-1.7a.18.18,0,0,1,.08-.16h-.42a.18.18,0,0,1,.08.16v1.13h0l-.9-1.29h-.48a.17.17,0,0,1,.08.16Zm2.37-1.44c.33,0,.85,0,.85.66s-.52.66-.85.66ZM44,34.8a.17.17,0,0,1-.08.16h.53c1.15,0,1.15-.74,1.15-.88,0-.67-.43-1-1.15-1h-.53a.17.17,0,0,1,.08.16Zm1.85-.6c0,.62.23.8.74.8s.69-.31.69-.8v-.94a.18.18,0,0,1,.08-.16h-.42a.18.18,0,0,1,.08.16v.94c0,.28,0,.53-.39.53s-.4-.22-.4-.53v-.94a.18.18,0,0,1,.08-.16h-.54a.18.18,0,0,1,.08.16Zm3,.24c-.06.06-.24.29-.48.29s-.51-.31-.51-.68.19-.73.53-.73a.48.48,0,0,1,.4.26v-.48s0,0-.07,0a1.37,1.37,0,0,0-.41-.09.9.9,0,0,0-.82,1,.88.88,0,0,0,.81,1,1.23,1.23,0,0,0,.5-.15s0,0,.05,0Zm.76.36a.18.18,0,0,1-.08.16h.54A.18.18,0,0,1,50,34.8V33.36h.36c.14,0,.14.07.18.12V33.1H49.12v.38s0-.12.18-.12h.36Zm1.76-.08a.61.61,0,0,1-.15.24h.46s-.06,0-.06-.08a.63.63,0,0,1,0-.16l.11-.31h.67l.12.33a.45.45,0,0,1,0,.15s0,.06-.06.08h.55c-.05,0-.08-.07-.15-.23l-.61-1.63h-.47s.06,0,.06.08a.56.56,0,0,1-.06.18Zm.49-.55.25-.68.26.68Zm1.33,0c0,.62.23.8.74.8s.69-.31.69-.8v-.94a.18.18,0,0,1,.08-.16h-.42a.18.18,0,0,1,.08.16v.94c0,.28,0,.53-.39.53s-.4-.22-.4-.53v-.94a.18.18,0,0,1,.08-.16h-.54a.18.18,0,0,1,.08.16Zm2.24.6a.18.18,0,0,1-.08.16h.54a.18.18,0,0,1-.08-.16V33.36h.36c.14,0,.14.07.18.12V33.1H54.94v.38s0-.12.18-.12h.36Zm1.2,0a.19.19,0,0,1-.08.16h.54a.18.18,0,0,1-.08-.16v-.68h.73v.68a.19.19,0,0,1-.08.16h.54a.18.18,0,0,1-.08-.16V33.26a.17.17,0,0,1,.08-.16H57.7a.17.17,0,0,1,.08.16v.6h-.73v-.6a.17.17,0,0,1,.08-.16H56.6a.17.17,0,0,1,.08.16Zm2.64.2a1,1,0,1,0-.94-1,.94.94,0,0,0,.94,1m-.56-1c0-.38.22-.71.56-.71s.55.32.55.71a.63.63,0,0,1-.55.7c-.33,0-.56-.3-.56-.7m1.71.77a.18.18,0,0,1-.08.16h.54a.18.18,0,0,1-.08-.16v-.59h.3l.4.75H62a.55.55,0,0,1-.16-.19l-.37-.65a.54.54,0,0,0,.39-.46c0-.43-.28-.57-.83-.57h-.67a.17.17,0,0,1,.08.16Zm.38-.86v-.58h.22c.32,0,.45.09.45.3s-.12.27-.44.27Zm1.47.86a.18.18,0,0,1-.08.16h.54a.18.18,0,0,1-.08-.16V33.26a.17.17,0,0,1,.08-.16h-.54a.17.17,0,0,1,.08.16Zm1.22,0a.19.19,0,0,1-.08.16H64a.18.18,0,0,1-.08-.16V33.36h.36c.14,0,.14.07.18.12V33.1H63v.38s0-.12.18-.12h.36Zm1.77,0a.18.18,0,0,1-.08.16h.54a.18.18,0,0,1-.08-.16v-.47l.51-1a.44.44,0,0,1,.15-.2H65.9s0,0,0,.07a.36.36,0,0,1,0,.14l-.34.73-.35-.76a.3.3,0,0,1,0-.13s0,0,0-.06h-.56a.43.43,0,0,1,.16.2l.51,1Z"/>
    <path fill="#fff"
          d="M67.28,29.47a1,1,0,1,0-1-1,1,1,0,0,0,1,1m-.82-1a.82.82,0,1,1,.82.84.83.83,0,0,1-.82-.84m.46.5h.19v-.42h.22l.16.42h.21l-.19-.45a.25.25,0,0,0,.18-.26c0-.3-.22-.34-.42-.34h-.34Zm.19-.86h.21c.11,0,.17,0,.17.14s-.07.13-.16.13H67.1Z"/>
</svg>