<?xml version="1.0" encoding="utf-8"?>
<!-- Generator: Adobe Illustrator 21.1.0, SVG Export Plug-In . SVG Version: 6.00 Build 0)  -->
<svg version="1.1" baseProfile="basic" id="Layer_1"
	 xmlns="http://www.w3.org/2000/svg" xmlns:xlink="http://www.w3.org/1999/xlink" x="0px" y="0px" viewBox="0 0 560 288"
	 xml:space="preserve">
<style type="text/css">
	.st0{fill:#FFFFFF;}
	.st1{fill:#A2AEBF;}
</style>
<g>
	<path class="st0" d="M52.2,233.2c0-59.4,0-118.9,0-178.3c156.2,0,312.3,0,468.5,0c0,59.4,0,118.9,0,178.3
		C364.5,233.2,208.4,233.2,52.2,233.2z M159.5,105.3c0.1-1.1,0.3-2,0.3-2.9c0.1-5,0-9.9-1.2-14.7c-1.9-7.7-6.1-13.7-13.3-17.3
		c-4.5-2.2-9.3-3.1-14.2-3.6c-3.4-0.4-6.8-0.7-10.3-0.7c-6.8,0-13.5,0.1-20.3,0.2c-3,0.1-6,0.3-9,0.5c-2.4,0.2-4.8,0.4-7.1,0.7
		c-4.9,0.6-9.5,2.1-13.8,4.6c-3.8,2.2-6.8,5.2-8.8,9.2c-2.4,5-3.1,10.3-3.5,15.7c-0.2,3,0,6.1,0,9.1c0,4.8,0.5,9.6,1.9,14.2
		c1.1,3.6,2.6,6.9,5.3,9.6c3,3,6.6,4.9,10.6,6.3c4.7,1.7,9.6,2.2,14.5,2.8c3.5,0.4,7,0.7,10.6,0.9c3.2,0.3,6.5,0.4,9.7,0.7
		c4.2,0.4,8.4,0.7,12.6,1.2c3.2,0.4,5.4,2.1,6.5,5.1c1.1,3,0.8,6,0.5,9.1c-0.4,4-3.7,6.8-7,7.5c-2.4,0.5-5,0.7-7.4,0.7
		c-3.9,0.1-7.9,0.1-11.8,0c-2.7-0.1-5.4-0.4-8-1c-2.3-0.5-4.2-1.9-5.4-4.1c-0.9-1.9-1.2-4-1.4-6.1c-0.1-1.1,0-2.3,0-3.4
		c-10.5,0-20.9,0-31.3,0c0,0.2-0.1,0.3-0.1,0.5c0.2,3.8,0.2,7.6,0.5,11.4c0.2,2.4,0.5,4.7,0.9,7.1c0.8,4.3,2.7,8,5.6,11.3
		c2.9,3.2,6.5,5.3,10.5,6.7c5.8,2,11.8,2.4,17.8,3c2.6,0.2,5.2,0.5,7.9,0.5c8,0,16,0,24.1-0.2c3.5-0.1,7-0.4,10.5-0.9
		c2.8-0.4,5.7-1.2,8.4-2c3.4-1.1,6.6-2.8,9.4-5.1c3.1-2.6,5.5-5.7,6.9-9.5c2.1-5.5,2.5-11.4,2.8-17.2c0.2-5.6,0.1-11.2-0.6-16.8
		c-0.5-3.4-1.5-6.6-3.3-9.6c-3.4-5.5-8.7-8.6-14.7-10.4c-4.8-1.5-9.7-2.1-14.7-2.6c-3.6-0.3-7.2-0.5-10.9-0.7
		c-1.2-0.1-2.5-0.1-3.7-0.2c-4.1-0.3-8.1-0.6-12.2-0.9c-2-0.2-4-0.3-5.9-0.7c-3-0.6-5.1-2.5-5.8-5.5c-0.8-3.4-0.8-6.8,0.3-10.2
		c0.9-2.5,2.6-4,5-4.8c3.6-1.1,7.4-1.2,11.2-1.4c2.3-0.1,4.7,0,7,0.2c2.2,0.2,4.5,0.4,6.7,1c2.3,0.5,4.5,1.5,5.2,4
		c0.5,1.7,0.8,3.6,1,5.4c0.1,1.2,0,2.4,0,3.6C138.6,105.3,149.1,105.3,159.5,105.3z M514.4,190.1c-0.3-1.1-0.5-2-0.8-2.9
		c-2.7-8.8-5.4-17.7-8.1-26.5c-1.6-5.3-3.2-10.6-4.8-15.9c-2.8-9.1-5.6-18.1-8.3-27.2c-1.6-5.3-3.1-10.6-4.8-15.9
		c-2.5-8.3-5.1-16.6-7.7-24.9c-1.1-3.5-2.1-7-3.1-10.5c-0.2-0.8-0.6-1-1.5-1c-14.3,0-28.5,0-42.8,0c-2,0-4.1,0-6.1,0
		c-0.6,0-1,0.1-1.1,0.8c-0.1,0.9-0.5,1.8-0.8,2.7c-1.8,5.9-3.6,11.9-5.4,17.8c-2.6,8.7-5.2,17.4-7.8,26c-2.6,8.8-5.3,17.6-8,26.5
		c-2.6,8.6-5.1,17.2-7.7,25.8c-1.9,6.5-3.9,12.9-5.8,19.3c-0.6,1.9-1.1,3.7-1.7,5.7c0.5,0,1,0,1.4,0c10.8,0,21.5,0,32.3,0
		c1.1,0,1.6-0.4,1.7-1.4c0-0.2,0.1-0.4,0.2-0.5c1.7-6.2,3.5-12.3,5.2-18.5c0.2-0.9,0.6-1.1,1.4-1.1c14.1,0,28.2,0,42.3,0
		c0.3,0,0.7,0,1,0c0.1,0.1,0.1,0.2,0.2,0.2c2,6.8,4.1,13.6,6,20.4c0.3,0.9,0.7,0.9,1.4,0.9c10.7,0,21.4,0,32.1,0
		C513.7,190.1,514,190.1,514.4,190.1z M330.5,190c0-10.7,0-21.3,0-32c0.3,0,0.5,0,0.7,0c7.8-0.1,15.6-0.1,23.5-0.2
		c3.5,0,6.9-0.1,10.4-0.2c3.3-0.1,6.7-0.2,10-0.5c4.4-0.4,8.5-1.7,12.3-3.9c5.9-3.4,9.7-8.4,12-14.6c2.2-6,2.6-12.3,2.9-18.5
		c0.3-4.1,0.1-8.2,0-12.3c-0.1-3.8-0.3-7.6-0.7-11.4c-0.3-2.7-0.8-5.4-1.6-8c-1.7-5.5-4.6-10.3-8.9-14.2c-2.6-2.3-5.5-4-8.6-5.4
		c-5.8-2.5-12.1-3.2-18.3-3.3c-22.1-0.1-44.2-0.1-66.3-0.1c-0.4,0-0.8,0-1.2,0c0,41.7,0,83.1,0,124.7C307.9,190,319.1,190,330.5,190
		z M284.4,155.5c-9.7,10.5-21.4,16.2-35.7,15.6c-14.3-0.6-25.5-7.2-34.1-18.7c0.7,0,1.1,0,1.6,0c14.3,0,28.6,0,42.9,0
		c0.8,0,1.3-0.2,1.6-1c0.4-1,0.9-2,1.4-3c2-4.3,4-8.5,6-12.8c0.3-0.7,0.6-1.4,1-2.3c-20.7,0-41.3,0-61.9,0c0-3.3,0-6.5,0-9.8
		c0.5,0,0.9,0,1.4,0c20.5,0,40.9,0,61.4,0.1c2.7,0,4.3-0.4,5.3-3.2c1.6-4.3,3.8-8.3,5.7-12.4c0.5-1.2,1.1-2.3,1.7-3.6
		c-11.6,0-23.1,0-34.5,0c-11.5,0-22.9,0-34.8,0c8.4-12.6,19.7-19.7,34.5-20.7c15.1-1,27.5,5.1,37.2,16.8c2.6-5.7,5.2-11.2,7.9-16.9
		c-1-0.8-1.9-1.7-2.9-2.5c-3.5-3.1-7.3-5.6-11.4-7.8c-4-2.1-8.2-4-12.6-5c-4.1-0.9-8.3-1.7-12.5-2.2c-2.4-0.3-4.8,0-7.3-0.1
		c-4.4-0.1-8.7,0.7-13,1.7c-6.9,1.6-13.4,4.3-19.4,8.2c-4.6,3-9,6.3-12.6,10.6c-1.7,2-3.4,4-5,6.2c-2.5,3.3-4.6,6.9-6.1,10.7
		c-0.3,0.8-0.8,1.1-1.7,1.1c-3.9-0.1-7.8,0-11.7-0.1c-0.9,0-1.4,0.2-1.7,1.1c-2.3,5-4.6,9.9-6.9,14.9c-0.5,1-0.9,2.1-1.4,3.4
		c6.3,0,12.3,0,18.4,0c0,3.3,0,6.5,0,9.8c-2.4,0-4.8,0.1-7.1,0c-1.2,0-1.8,0.2-2.3,1.5c-2.4,5.5-5.1,10.9-7.6,16.3
		c-0.2,0.4-0.3,0.8-0.4,1.2c7.6,0,15,0,22.4,0c1.1,2.1,2.1,4.1,3.2,6c2.3,4.3,5.3,8.1,8.7,11.7c1.7,1.8,3.6,3.4,5.5,5
		c3,2.7,6.4,4.9,10,6.9c5.2,2.9,10.8,5.2,16.6,6.3c4.4,0.8,8.8,1.2,13.2,1.7c1.6,0.2,3.2,0,4.7-0.2c3.7-0.4,7.3-0.7,10.9-1.4
		c7.5-1.6,14.5-4.5,20.9-8.7c0.7-0.4,0.9-0.9,0.9-1.6c0-7.2,0-14.4,0-21.6C284.4,156.1,284.4,155.8,284.4,155.5z M332.1,222.6
		c0-3.2,0-6.2,0-9.3c0-0.8,0.2-1.7,0.4-2.5c0.4-1.8,2.2-2.4,3.4-2.2c1.1,0.2,1.7,1.3,1.7,2.9c0,3.3,0,6.6,0,9.8c0,0.4,0,0.8,0,1.2
		c1.7,0,3.3,0,4.9,0c0-3.4,0-6.6,0-9.9c0-0.8,0.3-1.7,0.7-2.5c0.5-1.2,2-1.8,3.1-1.5c1,0.3,1.6,1.2,1.6,2.6c0,3.2,0,6.5,0,9.7
		c0,0.5,0,1.1,0,1.6c1.7,0,3.3,0,4.9,0c0-4.2,0.1-8.3,0-12.4c-0.1-3.4-2.3-5.3-5.6-5.3c-2.2,0-3.9,1.1-5.4,2.5c-1.2-1.8-3-2.6-5-2.5
		c-2,0-3.7,1-5.1,2.6c0-0.9-0.1-1.5-0.1-2.1c-1.5,0-2.9,0-4.3,0c0,5.8,0,11.4,0,17.2C328.8,222.6,330.4,222.6,332.1,222.6z
		 M58.1,214.7c0.1,0.5,0.1,0.8,0.2,1.1c0.7,3.1,2.1,5.4,5.2,6.6c2,0.8,4.1,0.7,6.2,0.6c2.7-0.1,5-0.9,6.8-3.2
		c1.9-2.5,1.7-6.9-0.5-9.1c-1.6-1.6-3.8-2.2-5.9-2.8c-1.7-0.5-3.4-1-5.1-1.7c-0.5-0.2-0.9-1-1-1.6c0-0.4,0.5-1.1,0.9-1.4
		c0.5-0.3,1.1-0.6,1.7-0.6c2.2-0.3,4.7,0,5.3,2.9c0,0.2,0.4,0.5,0.6,0.5c1.5-0.1,3-0.2,4.5-0.3c0.2-2.7-1.2-5-3.6-6.2
		c-3-1.5-6.1-1.4-9.2-0.7c-3.1,0.7-4.8,2.7-5.2,5.6c-0.3,2.7,0.7,5.3,3.7,6.5c2.4,1,5.1,1.6,7.6,2.4c2.4,0.7,3,2.6,1.7,4.2
		c-1.6,1.8-5.7,2.1-7.3,0.2c-0.8-0.9-1.3-2.1-1.9-3.3C61.3,214.5,59.7,214.6,58.1,214.7z M130.1,205.4c-1.6,0-3,0-4.4,0
		c0,0.7-0.1,1.2-0.1,1.8c-2.1-2.1-4.3-2.9-7.1-2.2c-2.7,0.7-4.2,2.6-5,5.1c-0.6,2-0.7,4.1-0.3,6.2c0.5,2.6,1.7,4.8,4.3,5.9
		c2.3,1,4.6,0.7,6.6-0.8c0.3-0.2,0.6-0.5,1-0.8c0,1.3,0.1,2.5,0,3.6c-0.2,1.1-1.1,1.7-2.2,1.8c-1.3,0-2.8,0.4-3.7-1
		c-0.2-0.3-0.5-0.6-0.7-0.6c-1.5-0.3-3.1-0.5-4.6-0.7c-0.7,3.3,1.7,5.4,4.4,5.8c1.9,0.3,3.8,0.4,5.7,0.2c1.9-0.2,3.9-0.6,4.9-2.5
		c0.7-1.3,1.3-2.8,1.3-4.3C130.2,217,130.1,211.3,130.1,205.4z M193.7,218.4c-4.5,0-8.8,0-13.2,0c0-2,0-4,0-6.1c4,0,7.9,0,11.8,0
		c0-1.5,0-2.9,0-4.4c-4,0-7.9,0-11.8,0c0-1.7,0-3.3,0-4.9c4.3,0,8.5,0,12.7,0c0-1.4,0-2.8,0-4.1c-5.9,0-11.8,0-17.6,0
		c0,8,0,15.8,0,23.7c6.1,0,12.1,0,18.1,0C193.7,221.2,193.7,219.9,193.7,218.4z M461.2,222.6c0-0.2,0.1-0.4,0-0.5
		c-3-7.6-6.1-15.1-9.1-22.7c-0.1-0.3-0.7-0.7-1.1-0.7c-1.2-0.1-2.5,0-3.7,0c-0.5,0-0.8,0.1-1.1,0.7c-1.7,4.5-3.5,8.9-5.3,13.4
		c-1.3,3.2-2.5,6.4-3.8,9.8c1.6,0,3,0,4.4,0c0.8,0,1.1-0.3,1.3-1c0.5-1.5,1-2.9,1.5-4.4c2.8,0,5.6,0,8.3,0c0.8,0,1.2,0.3,1.4,1
		c0.4,1.3,0.9,2.5,1.4,3.7c0.1,0.3,0.4,0.6,0.7,0.6C458,222.7,459.6,222.6,461.2,222.6z M265.5,198.8c0,8,0,15.9,0,23.8
		c1.7,0,3.3,0,5.1,0c0-3,0-5.9,0-8.7c2.4-0.1,4.8-0.3,7.1-0.4c1.7-0.1,3.1-0.7,4.2-1.9c1.6-1.6,2.1-3.6,2.1-5.9
		c-0.1-3.9-2.4-6.8-6.4-7C273.5,198.6,269.5,198.8,265.5,198.8z M306,205.3c0,0.3,0,0.5,0.1,0.8c2,5.1,3.9,10.3,6,15.3
		c0.6,1.5,0.1,2.6-0.8,3.6c-0.8,0.9-1.9,1.1-3.1,0.9c-0.4-0.1-0.8-0.1-1.2-0.1c0.1,1,0.1,1.9,0.2,2.7c0.1,0.9,0.5,1.4,1.5,1.3
		c0.7-0.1,1.3,0,2,0c2.5,0,4.4-1,5.4-3.4c1.7-4.3,3.3-8.7,4.9-13c1-2.6,1.9-5.2,2.9-7.9c-1.1,0-2,0-3,0c-2.1,0-2.1,0-2.7,2
		c-1,3.2-2.1,6.4-3.1,9.8c-0.2-0.4-0.3-0.6-0.4-0.8c-1.2-3.3-2.3-6.7-3.4-10.1c-0.2-0.7-0.5-0.9-1.1-0.8
		C308.9,205.3,307.5,205.3,306,205.3z M303.7,222.6c-0.3-1.2-0.7-2.3-0.9-3.4c-0.1-1.2,0-2.3,0-3.5c0-1.9,0-3.8,0-5.7
		c-0.1-2.5-1-4.2-3.8-4.7c-1.5-0.3-3.1-0.5-4.7-0.4c-3.3,0.2-5.6,1.3-6.5,5.1c0.9,0.2,1.9,0.2,2.8,0.5c1.1,0.4,1.6,0.1,2.2-0.9
		c0.6-1.1,2.3-1.3,3.9-0.8c1.3,0.4,1.3,1.4,1.4,2.4c-0.1,0.1-0.2,0.1-0.3,0.2c-2.3,0.6-4.6,1-6.9,1.7c-2.4,0.7-3.8,2.6-3.6,5.1
		c0.1,2.1,1.3,4.2,4,4.8c2.7,0.6,5-0.1,6.9-1.7c0.5,0.5,0.8,1.3,1.3,1.3C301,222.7,302.3,222.6,303.7,222.6z M507.6,211.4
		c-1.8,0.4-3.6,0.7-5.4,1.2c-1.7,0.4-3.5,0.9-4.5,2.6c-1.8,3.1-0.3,6.9,3.2,7.7c2.7,0.6,5.1,0,7.1-1.7c0.4,0.5,0.7,1.3,1.2,1.4
		c1.4,0.2,2.8,0.1,4.4,0.1c-1.1-2-1.2-4.1-1.2-6.2c0-2.2,0-4.4,0-6.7c0-1.8-0.7-3.4-2.6-4.1c-2.2-0.9-4.5-0.9-6.9-0.6
		c-3,0.3-5.1,2.5-5.3,4.9c0.5,0.1,1,0.2,1.5,0.3c0.5,0.1,1.1,0.1,1.6,0.3c0.9,0.4,1.3,0.1,1.7-0.7c0.5-1.1,2.2-1.6,3.7-1.2
		C507.2,209,507.6,209.7,507.6,211.4z M232.9,214c-0.1,6.1,3.7,8.8,8.6,9.1c5.7,0.3,9.4-4.2,9.4-9c0-5.5-3.7-9.1-8.9-9.2
		C236.3,204.7,232.5,209.1,232.9,214z M493.6,215.4c0-0.7,0-1.2,0-1.7c-0.1-4.2-2-8-6.8-8.7c-3.1-0.5-6.6,0.6-8.3,3.8
		c-1.4,2.5-1.4,5.2-1,7.9c0.3,1.9,1.1,3.7,2.9,4.9c2.6,1.8,5.5,2,8.4,1.1c2.4-0.7,3.7-2.5,4.5-4.8c-0.6-0.1-1.1-0.3-1.6-0.4
		c-1.5-0.2-3.4-1.3-4,1.3c0,0.1-0.1,0.1-0.2,0.1c-1.2,0.9-2.6,0.6-3.7-0.1c-1.1-0.7-1.6-2-1.3-3.5
		C486.1,215.4,489.8,215.4,493.6,215.4z M373.4,215.4c-0.1-1.1-0.3-1.9-0.3-2.8c-0.3-3.7-2.4-7-6.6-7.6c-3.4-0.5-6.6,0.7-8.3,3.8
		c-1.2,2.1-1.4,4.4-1.2,6.7c0.3,3.1,1.6,6.2,5.6,7.3c4.3,1.2,9-0.2,10.5-5c-1.3-0.2-2.6-0.4-3.9-0.7c-0.7-0.2-1,0-1.2,0.6
		c-0.5,1.3-1.7,1.9-3.1,1.6c-1.9-0.4-2.9-1.7-3-4C365.6,215.4,369.4,215.4,373.4,215.4z M160.4,217.8c-1.4-0.2-2.6-0.3-3.8-0.7
		c-0.7-0.2-1,0-1.2,0.6c-0.6,1.7-2.2,2-3.7,1.6c-1.7-0.5-2.6-2.2-2.3-3.9c3.7,0,7.3,0,11,0c0.5-5.3-1.5-9.6-6.7-10.4
		c-3.5-0.5-7.3,1.2-8.7,4.7c-0.8,2.1-0.9,4.3-0.6,6.4c0.3,3,1.8,5.4,4.7,6.5c2.3,0.9,4.8,0.9,7.1,0
		C158.4,221.7,159.8,220.1,160.4,217.8z M409.5,217.6c0.5,1.6,1.1,3,2.5,3.9c3.6,2.2,7.2,2.2,11,0.5c2.1-1,3.1-2.9,3-5.1
		c-0.1-2.3-1.5-3.7-3.7-4.3c-2.2-0.6-4.4-1.2-6.6-1.9c-0.3-0.1-0.8-0.5-0.9-0.8c-0.1-0.3,0.2-0.8,0.5-1c1.4-1.1,4.3-0.5,5.2,1
		c0.2,0.3,0.6,0.6,0.8,0.6c1.3-0.2,2.6-0.5,4.1-0.8c-0.5-0.9-0.8-1.7-1.4-2.4c-1.2-1.6-2.9-2-4.8-2.2c-2.2-0.3-4.5-0.2-6.5,0.9
		c-2.1,1.1-2.8,2.9-2.6,5.2c0.2,1.8,1.1,3.1,2.8,3.6c2.2,0.7,4.4,1.3,6.6,1.9c0.6,0.2,1.6,0.2,1.4,1.2c-0.1,0.6-0.7,1.3-1.3,1.5
		c-2.6,0.9-4.5,0.2-5.5-2.4C412.7,217.1,411.2,217.3,409.5,217.6z M103.9,222.6c1.6,0,3.1,0,4.7,0c0-4.4,0.1-8.7,0-13
		c0-1.5-0.7-3-2.2-3.8c-2.1-1-4.3-1.3-6.5-0.2c-0.9,0.5-1.8,1.1-2.7,1.7c0-0.7,0-1.3,0-1.9c-1.5,0-2.9,0-4.3,0c0,5.8,0,11.5,0,17.2
		c1.6,0,3.2,0,4.8,0c0-3.2,0-6.3,0-9.4c0-0.7,0-1.5,0.3-2.2c0.4-1.4,1.5-2.1,2.8-2.4c1.1-0.3,2.1,0.2,2.6,1.1
		c0.4,0.8,0.6,1.7,0.6,2.6C104,215.7,103.9,219.1,103.9,222.6z M209.7,205.4c0,2.8,0.1,5.5,0,8.2c-0.1,1.4-0.2,2.8-0.7,4
		c-0.5,1.4-2.1,2-3.6,1.7c-1.1-0.2-1.7-1-1.9-2c-0.1-0.6-0.1-1.3-0.1-2c0-3.3,0-6.6,0-9.9c-1.7,0-3.3,0-4.9,0
		c0,4.1-0.1,8.1,0.1,12.1c0.1,1.3,0.6,2.8,1.3,3.8c1.8,2.3,5.7,2.3,8,0.9c0.7-0.4,1.3-1,2-1.6c0,0.7,0.1,1.3,0.1,1.9
		c1.5,0,2.9,0,4.3,0c0-5.8,0-11.4,0-17.2C212.8,205.4,211.3,205.4,209.7,205.4z M382.4,222.6c0-2.8-0.1-5.5,0-8.2
		c0.1-1.5-0.1-3.1,0.9-4.4c0.8-1.1,2.2-1.6,3.5-1.2c1.2,0.4,1.8,1.3,1.8,2.8c0.1,3.1,0.2,6.3,0.2,9.4c0,0.5,0,1.1,0,1.5
		c1.7,0,3.2,0,4.7,0c0-4.2,0.1-8.3-0.1-12.4c0-1.1-0.5-2.4-1.2-3.3c-1.6-2.2-4.9-2.5-7.2-1.5c-1,0.5-2,1.2-3,1.9c0-0.6,0-1.2,0-1.9
		c-1.5,0-2.9,0-4.3,0c0,5.8,0,11.5,0,17.2C379.4,222.6,380.8,222.6,382.4,222.6z M399.3,209c0,3.3-0.1,6.5,0,9.6
		c0.1,2.5,0.6,3.5,2.4,4.1c1.9,0.7,3.9,0.4,5.9-0.3c-0.1-1.3-0.3-2.5-0.4-3.8c-0.6,0.2-1,0.4-1.5,0.4c-0.8,0.1-1.4-0.2-1.4-1.1
		c0-3,0-5.9,0-9c1.1,0,2,0,3,0c0-1.3,0-2.5,0-3.8c-1,0-1.9,0-3,0c0-2.1,0-4,0-6.3c-1.3,0.8-2.5,1.5-3.6,2.1c-0.9,0.5-1.5,1-1.3,2.1
		c0.1,0.7,0,1.4,0,2.2c-0.8,0-1.4,0-2,0c0,1.3,0,2.4,0,3.7C397.9,209,398.5,209,399.3,209z M140.1,222.6c0-8,0-15.9,0-23.8
		c-1.6,0-3.1,0-4.5,0c0,8,0,15.8,0,23.7c0.2,0,0.4,0,0.6,0C137.5,222.6,138.8,222.6,140.1,222.6z M231.3,205.5
		c-1.4-0.2-2.7-0.7-3.9-0.5c-1.1,0.2-2.1,1.2-3.2,1.8c0-0.3,0-0.8,0-1.4c-1.5,0-2.9,0-4.3,0c0,5.8,0,11.5,0,17.2c1.6,0,3.1,0,4.8,0
		c0-3.3-0.1-6.4,0-9.6c0.2-3.2,1.7-4.3,4.2-3.4c0.3,0.1,0.5,0.3,0.7,0.4C230.2,208.6,230.7,207.2,231.3,205.5z M474.5,210
		c0.4-1.3,0.9-2.5,1.3-3.8c0.1-0.2-0.2-0.6-0.4-0.7c-1.4-0.6-2.8-1-4.2-0.3c-0.8,0.4-1.4,1.2-2.2,1.8c0-0.6,0-1.1,0-1.6
		c-1.5,0-2.9,0-4.3,0c0,5.8,0,11.5,0,17.2c1.6,0,3.1,0,4.8,0c0-3.3-0.1-6.6,0-9.8c0.1-1.9,1-3.8,3.2-3.4
		C473.2,209.4,473.7,209.7,474.5,210z M87.2,222.6c0-5.8,0-11.5,0-17.2c-1.6,0-3.1,0-4.5,0c0,5.8,0,11.4,0,17.2
		C84.2,222.6,85.7,222.6,87.2,222.6z M87.2,203.2c0-1.5,0-2.9,0-4.3c-1.6,0-3.1,0-4.5,0c0,1.5,0,2.9,0,4.3
		C84.2,203.2,85.7,203.2,87.2,203.2z"/>
	<path class="st1" d="M159.5,105.2c-10.4,0-20.9,0-31.5,0c0-1.2,0.1-2.4,0-3.6c-0.2-1.8-0.5-3.6-1-5.4c-0.8-2.5-2.9-3.5-5.2-4
		c-2.2-0.5-4.4-0.8-6.7-1c-2.3-0.2-4.7-0.3-7-0.2c-3.8,0.2-7.5,0.3-11.2,1.4c-2.4,0.7-4.2,2.3-5,4.8c-1.2,3.4-1.2,6.8-0.3,10.2
		c0.7,3,2.8,4.9,5.8,5.5c1.9,0.4,3.9,0.6,5.9,0.7c4.1,0.3,8.1,0.6,12.2,0.9c1.2,0.1,2.5,0.2,3.7,0.2c3.6,0.2,7.2,0.4,10.9,0.7
		c5,0.5,9.9,1.1,14.7,2.6c6,1.9,11.3,4.9,14.7,10.4c1.8,2.9,2.8,6.1,3.3,9.6c0.8,5.6,0.8,11.2,0.6,16.8c-0.2,5.8-0.6,11.7-2.8,17.2
		c-1.5,3.8-3.8,6.9-6.9,9.5c-2.8,2.3-6,4-9.4,5.1c-2.7,0.9-5.6,1.6-8.4,2c-3.5,0.5-7,0.9-10.5,0.9c-8,0.2-16,0.2-24.1,0.2
		c-2.6,0-5.3-0.2-7.9-0.5c-6-0.6-12.1-1-17.8-3c-4.1-1.4-7.7-3.5-10.5-6.7c-2.9-3.2-4.8-7-5.6-11.3c-0.4-2.3-0.8-4.7-0.9-7.1
		c-0.3-3.8-0.3-7.6-0.5-11.4c0-0.1,0-0.3,0.1-0.5c10.4,0,20.8,0,31.3,0c0,1.1-0.1,2.3,0,3.4c0.1,2.1,0.4,4.2,1.4,6.1
		c1.1,2.3,3,3.6,5.4,4.1c2.6,0.6,5.3,0.8,8,1c3.9,0.2,7.9,0.1,11.8,0c2.5-0.1,5-0.2,7.4-0.7c3.3-0.7,6.6-3.5,7-7.5
		c0.3-3.1,0.6-6.1-0.5-9.1c-1.1-3-3.3-4.8-6.5-5.1c-4.2-0.5-8.4-0.8-12.6-1.2c-3.2-0.3-6.5-0.5-9.7-0.7c-3.5-0.3-7.1-0.5-10.6-0.9
		c-4.9-0.6-9.8-1.1-14.5-2.8c-3.9-1.4-7.6-3.2-10.6-6.3c-2.7-2.7-4.3-6-5.3-9.6c-1.4-4.6-1.9-9.4-1.9-14.2c0-3.1-0.2-6.1,0-9.1
		c0.4-5.4,1.1-10.7,3.5-15.7c1.9-4,5-7,8.8-9.2c4.3-2.5,8.9-4,13.8-4.6c2.4-0.3,4.7-0.5,7.1-0.7c3-0.2,6-0.4,9-0.5
		c6.8-0.1,13.5-0.3,20.3-0.2c3.4,0,6.9,0.3,10.3,0.7c4.9,0.5,9.8,1.4,14.2,3.6c7.2,3.6,11.4,9.6,13.3,17.3c1.2,4.8,1.3,9.8,1.2,14.7
		C159.8,103.2,159.6,104.1,159.5,105.2z"/>
	<path class="st1" d="M514.4,189.9c-0.5,0-0.8,0-1.1,0c-10.7,0-21.4,0-32.1,0c-0.7,0-1.1,0-1.4-0.9c-1.9-6.8-4-13.6-6-20.4
		c0-0.1-0.1-0.1-0.2-0.2c-0.3,0-0.7,0-1,0c-14.1,0-28.2,0-42.3,0c-0.9,0-1.2,0.2-1.4,1.1c-1.7,6.2-3.4,12.3-5.2,18.5
		c-0.1,0.2-0.1,0.4-0.2,0.5c-0.1,1.1-0.6,1.4-1.7,1.4c-10.8,0-21.5,0-32.3,0c-0.4,0-0.8,0-1.4,0c0.6-2,1.1-3.8,1.7-5.7
		c1.9-6.4,3.9-12.9,5.8-19.3c2.6-8.6,5.2-17.2,7.7-25.8c2.6-8.8,5.3-17.6,8-26.5c2.6-8.7,5.2-17.4,7.8-26c1.8-5.9,3.6-11.9,5.4-17.8
		c0.3-0.9,0.7-1.8,0.8-2.7c0.1-0.8,0.5-0.9,1.1-0.8c2,0,4.1,0,6.1,0c14.3,0,28.5,0,42.8,0c0.8,0,1.2,0.2,1.5,1c1,3.5,2.1,7,3.1,10.5
		c2.5,8.3,5.1,16.6,7.7,24.9c1.6,5.3,3.1,10.6,4.8,15.9c2.8,9.1,5.6,18.1,8.3,27.2c1.6,5.3,3.2,10.6,4.8,15.9
		c2.7,8.8,5.4,17.7,8.1,26.5C513.9,187.9,514.2,188.9,514.4,189.9z M451.6,90.6c-5.1,18-10.1,35.7-15.1,53.4c10.3,0,20.4,0,30.6,0
		C461.9,126.2,456.8,108.6,451.6,90.6z"/>
	<path class="st1" d="M330.5,189.9c-11.4,0-22.6,0-33.9,0c0-41.5,0-83,0-124.7c0.4,0,0.8,0,1.2,0c22.1,0,44.2-0.1,66.3,0.1
		c6.2,0,12.5,0.7,18.3,3.3c3.1,1.4,6,3.1,8.6,5.4c4.4,3.9,7.3,8.7,8.9,14.2c0.8,2.6,1.3,5.3,1.6,8c0.4,3.8,0.6,7.6,0.7,11.4
		c0.1,4.1,0.2,8.2,0,12.3c-0.4,6.3-0.7,12.5-2.9,18.5c-2.3,6.3-6.1,11.3-12,14.6c-3.8,2.2-7.9,3.5-12.3,3.9c-3.3,0.3-6.6,0.4-10,0.5
		c-3.5,0.1-6.9,0.2-10.4,0.2c-7.8,0.1-15.6,0.2-23.5,0.2c-0.2,0-0.4,0-0.7,0C330.5,168.5,330.5,179.2,330.5,189.9z M330.5,128.5
		c0.2,0,0.3,0.1,0.4,0.1c9.9-0.3,19.8,0.7,29.7-0.7c3-0.4,4.9-2.1,5.9-4.9c1.3-3.3,1.1-6.7,1.4-10.1c0.1-1.8-0.1-3.6-0.2-5.4
		c-0.2-2.1-0.4-4.3-0.7-6.4c-0.8-5.2-4.8-7.9-9.4-8.2c-4.3-0.4-8.5-0.2-12.8-0.3c-4.3,0-8.7,0-13,0c-0.4,0-0.8,0-1.2,0
		C330.5,104.7,330.5,116.6,330.5,128.5z"/>
	<path class="st1" d="M284.4,155.4c0,0.3,0,0.6,0,0.9c0,7.2,0,14.4,0,21.6c0,0.7-0.2,1.2-0.9,1.6c-6.4,4.2-13.4,7.2-20.9,8.7
		c-3.6,0.7-7.3,1-10.9,1.4c-1.6,0.2-3.2,0.4-4.7,0.2c-4.4-0.5-8.9-0.9-13.2-1.7c-5.9-1.1-11.4-3.4-16.6-6.3c-3.6-1.9-7-4.1-10-6.9
		c-1.8-1.7-3.8-3.2-5.5-5c-3.3-3.5-6.3-7.4-8.7-11.7c-1.1-2-2.1-4-3.2-6c-7.3,0-14.8,0-22.4,0c0.1-0.5,0.2-0.9,0.4-1.2
		c2.6-5.4,5.2-10.8,7.6-16.3c0.6-1.2,1.1-1.5,2.3-1.5c2.4,0.1,4.8,0,7.1,0c0-3.3,0-6.5,0-9.8c-6.1,0-12.1,0-18.4,0
		c0.5-1.2,1-2.3,1.4-3.4c2.3-5,4.6-9.9,6.9-14.9c0.4-0.8,0.8-1.1,1.7-1.1c3.9,0.1,7.8,0,11.7,0.1c1,0,1.4-0.3,1.7-1.1
		c1.5-3.9,3.6-7.4,6.1-10.7c1.6-2.1,3.3-4.1,5-6.2c3.6-4.2,7.9-7.6,12.6-10.6c6-3.8,12.5-6.6,19.4-8.2c4.3-1,8.6-1.7,13-1.7
		c2.4,0,4.9-0.2,7.3,0.1c4.2,0.5,8.4,1.3,12.5,2.2c4.4,1,8.6,2.9,12.6,5c4.1,2.2,8,4.7,11.4,7.8c1,0.8,1.9,1.7,2.9,2.5
		c-2.6,5.7-5.2,11.2-7.9,16.9c-9.7-11.7-22.1-17.8-37.2-16.8c-14.7,0.9-26.1,8.1-34.5,20.7c11.8,0,23.3,0,34.8,0
		c11.5,0,22.9,0,34.5,0c-0.6,1.3-1.1,2.5-1.7,3.6c-1.9,4.1-4.1,8.1-5.7,12.4c-1,2.8-2.6,3.2-5.3,3.2c-20.5-0.1-40.9-0.1-61.4-0.1
		c-0.5,0-0.9,0-1.4,0c0,3.3,0,6.5,0,9.8c20.7,0,41.2,0,61.9,0c-0.4,0.9-0.6,1.6-1,2.3c-2,4.3-4,8.5-6,12.8c-0.5,1-1,2-1.4,3
		c-0.3,0.8-0.8,1-1.6,1c-14.3,0-28.6,0-42.9,0c-0.4,0-0.9,0-1.6,0c8.6,11.6,19.7,18.1,34.1,18.7C263,171.6,274.6,165.9,284.4,155.4z
		"/>
	<path class="st1" d="M332.1,222.4c-1.7,0-3.3,0-4.9,0c0-5.7,0-11.4,0-17.2c1.4,0,2.8,0,4.3,0c0,0.6,0.1,1.2,0.1,2.1
		c1.4-1.6,3.1-2.6,5.1-2.6c2.1,0,3.8,0.7,5,2.5c1.5-1.4,3.2-2.6,5.4-2.5c3.4,0.1,5.5,1.9,5.6,5.3c0.1,4.1,0,8.2,0,12.4
		c-1.6,0-3.2,0-4.9,0c0-0.5,0-1.1,0-1.6c0-3.2,0-6.5,0-9.7c0-1.4-0.6-2.4-1.6-2.6c-1.1-0.3-2.6,0.4-3.1,1.5
		c-0.4,0.8-0.6,1.7-0.7,2.5c-0.1,3.3,0,6.5,0,9.9c-1.6,0-3.2,0-4.9,0c0-0.4,0-0.8,0-1.2c0-3.3,0-6.6,0-9.8c0-1.6-0.7-2.7-1.7-2.9
		c-1.2-0.2-3,0.4-3.4,2.2c-0.2,0.8-0.4,1.6-0.4,2.5C332.1,216.2,332.1,219.2,332.1,222.4z"/>
	<path class="st1" d="M58.1,214.6c1.6-0.1,3.2-0.3,4.6-0.4c0.7,1.2,1.2,2.3,1.9,3.3c1.6,1.9,5.7,1.6,7.3-0.2
		c1.4-1.6,0.8-3.4-1.7-4.2c-2.5-0.8-5.2-1.4-7.6-2.4c-3-1.3-4-3.9-3.7-6.5c0.4-2.9,2.1-4.8,5.2-5.6c3.1-0.8,6.2-0.8,9.2,0.7
		c2.4,1.2,3.7,3.6,3.6,6.2c-1.5,0.1-3,0.3-4.5,0.3c-0.2,0-0.6-0.3-0.6-0.5c-0.6-2.9-3.1-3.2-5.3-2.9c-0.6,0.1-1.2,0.3-1.7,0.6
		c-0.4,0.3-1,0.9-0.9,1.4c0,0.6,0.5,1.4,1,1.6c1.6,0.7,3.4,1.2,5.1,1.7c2.1,0.6,4.3,1.2,5.9,2.8c2.2,2.2,2.3,6.7,0.5,9.1
		c-1.7,2.3-4.1,3.1-6.8,3.2c-2.1,0.1-4.1,0.1-6.2-0.6c-3.1-1.2-4.6-3.5-5.2-6.6C58.2,215.4,58.2,215,58.1,214.6z"/>
	<path class="st1" d="M130.1,205.2c0,5.9,0.1,11.6-0.1,17.4c0,1.4-0.6,3-1.3,4.3c-1,1.9-3,2.3-4.9,2.5c-1.9,0.2-3.8,0.1-5.7-0.2
		c-2.7-0.4-5.1-2.5-4.4-5.8c1.5,0.2,3.1,0.4,4.6,0.7c0.3,0,0.6,0.4,0.7,0.6c1,1.4,2.4,1,3.7,1c1.1,0,2-0.6,2.2-1.8
		c0.2-1.1,0-2.3,0-3.6c-0.4,0.3-0.7,0.6-1,0.8c-2.1,1.5-4.3,1.7-6.6,0.8c-2.6-1.1-3.8-3.2-4.3-5.9c-0.4-2.1-0.3-4.2,0.3-6.2
		c0.8-2.5,2.3-4.4,5-5.1c2.8-0.7,5,0.1,7.1,2.2c0-0.6,0.1-1.2,0.1-1.8C127.2,205.2,128.6,205.2,130.1,205.2z M117.8,213.4
		c0.2,1,0.3,1.9,0.6,2.9c0.4,1.4,1.5,2.2,2.9,2.3c1.2,0.1,2.4-0.4,3.1-1.6c1.2-1.9,1.3-3.9,0.6-6c-0.8-2.6-3.5-3.5-5.5-1.9
		C118.2,210.2,117.9,211.8,117.8,213.4z"/>
	<path class="st1" d="M193.7,218.2c0,1.5,0,2.8,0,4.2c-6,0-12.1,0-18.1,0c0-7.9,0-15.8,0-23.7c5.8,0,11.7,0,17.6,0
		c0,1.3,0,2.7,0,4.1c-4.2,0-8.4,0-12.7,0c0,1.7,0,3.2,0,4.9c3.9,0,7.8,0,11.8,0c0,1.5,0,2.9,0,4.4c-3.9,0-7.8,0-11.8,0
		c0,2.1,0,4,0,6.1C184.9,218.2,189.3,218.2,193.7,218.2z"/>
	<path class="st1" d="M461.2,222.5c-1.6,0-3.3,0-4.9,0c-0.2,0-0.6-0.3-0.7-0.6c-0.5-1.2-1-2.5-1.4-3.7c-0.2-0.7-0.6-1-1.4-1
		c-2.8,0-5.5,0-8.3,0c-0.5,1.5-1,3-1.5,4.4c-0.2,0.7-0.6,1-1.3,1c-1.4-0.1-2.9,0-4.4,0c1.3-3.3,2.5-6.5,3.8-9.8
		c1.8-4.5,3.6-8.9,5.3-13.4c0.2-0.6,0.5-0.7,1.1-0.7c1.2,0,2.5-0.1,3.7,0c0.4,0,0.9,0.4,1.1,0.7c3.1,7.5,6.1,15.1,9.1,22.7
		C461.3,222.1,461.2,222.2,461.2,222.5z M452.2,212.8c-1-2.7-2-5.3-3.1-8.2c-1.1,3-2,5.6-3,8.2C448.2,212.8,450.1,212.8,452.2,212.8
		z"/>
	<path class="st1" d="M265.5,198.6c4.1,0,8-0.1,12,0c4,0.2,6.4,3,6.4,7c0,2.3-0.4,4.3-2.1,5.9c-1.1,1.1-2.6,1.8-4.2,1.9
		c-2.3,0.1-4.6,0.2-7.1,0.4c0,2.9,0,5.8,0,8.7c-1.7,0-3.4,0-5.1,0C265.5,214.5,265.5,206.6,265.5,198.6z M270.6,209.5
		c1.9-0.1,3.8-0.1,5.6-0.4c1.6-0.2,2.5-1.4,2.5-2.9c0-1.6-0.9-2.9-2.5-3.1c-1.9-0.2-3.7-0.2-5.7-0.4
		C270.6,205,270.6,207.1,270.6,209.5z"/>
	<path class="st1" d="M306,205.1c1.5,0,2.8,0,4.2,0c0.6,0,0.9,0.2,1.1,0.8c1.1,3.4,2.3,6.7,3.4,10.1c0.1,0.2,0.2,0.4,0.4,0.8
		c1.1-3.4,2.1-6.6,3.1-9.8c0.6-2,0.6-2,2.7-2c0.9,0,1.9,0,3,0c-1,2.7-1.9,5.3-2.9,7.9c-1.6,4.4-3.2,8.7-4.9,13
		c-0.9,2.4-2.9,3.4-5.4,3.4c-0.7,0-1.3,0-2,0c-1,0.1-1.4-0.4-1.5-1.3c-0.1-0.8-0.1-1.7-0.2-2.7c0.4,0,0.8,0.1,1.2,0.1
		c1.2,0.2,2.3,0,3.1-0.9c0.8-1,1.4-2.1,0.8-3.6c-2.1-5.1-4-10.2-6-15.3C306.1,205.7,306.1,205.4,306,205.1z"/>
	<path class="st1" d="M303.7,222.5c-1.4,0-2.8,0.1-4.1-0.1c-0.5-0.1-0.8-0.8-1.3-1.3c-1.9,1.5-4.2,2.2-6.9,1.7
		c-2.7-0.6-3.9-2.7-4-4.8c-0.1-2.4,1.2-4.4,3.6-5.1c2.3-0.7,4.6-1.1,6.9-1.7c0.1,0,0.1-0.1,0.3-0.2c0-1-0.1-2-1.4-2.4
		c-1.5-0.5-3.3-0.3-3.9,0.8c-0.5,1-1.1,1.3-2.2,0.9c-0.9-0.3-1.9-0.4-2.8-0.5c0.9-3.8,3.2-4.9,6.5-5.1c1.5-0.1,3.1,0.1,4.7,0.4
		c2.7,0.5,3.7,2.2,3.8,4.7c0.1,1.9,0,3.8,0,5.7c0,1.2-0.1,2.4,0,3.5C303,220.2,303.4,221.3,303.7,222.5z M298.1,214.4
		c-1.5,0.4-3,0.7-4.4,1.1c-1.5,0.5-1.9,2.2-0.7,3.3c0.9,0.9,2,0.8,3,0.4C297.8,218.4,298.3,217.2,298.1,214.4z"/>
	<path class="st1" d="M507.6,211.2c0.1-1.7-0.3-2.4-1.7-2.7c-1.5-0.4-3.1,0.1-3.7,1.2c-0.4,0.8-0.9,1.1-1.7,0.7
		c-0.5-0.2-1-0.2-1.6-0.3c-0.5-0.1-1-0.2-1.5-0.3c0.3-2.4,2.3-4.6,5.3-4.9c2.4-0.3,4.7-0.3,6.9,0.6c1.8,0.7,2.5,2.3,2.6,4.1
		c0.1,2.2,0,4.4,0,6.7c0,2.1,0,4.2,1.2,6.2c-1.6,0-3,0.1-4.4-0.1c-0.4-0.1-0.8-0.9-1.2-1.4c-2,1.8-4.4,2.4-7.1,1.7
		c-3.4-0.8-5-4.6-3.2-7.7c1-1.7,2.8-2.2,4.5-2.6C504,212,505.7,211.6,507.6,211.2z M507.6,214.4c-0.8,0.2-1.5,0.4-2.3,0.6
		c-0.7,0.2-1.5,0.3-2.2,0.5c-1.5,0.5-1.8,2.2-0.7,3.3c1,0.9,2.8,0.8,4-0.2C507.9,217.5,507.6,216,507.6,214.4z"/>
	<path class="st1" d="M232.9,213.8c-0.3-4.9,3.4-9.3,9.1-9.2c5.2,0.1,8.9,3.7,8.9,9.2c0,4.8-3.7,9.4-9.4,9
		C236.6,222.6,232.8,219.9,232.9,213.8z M237.7,213.8c0.1,0.8,0.1,1.5,0.3,2.3c0.5,1.5,1.5,2.6,3.1,2.9c1.5,0.2,2.9-0.3,3.8-1.6
		c1.4-2.1,1.4-4.4,0.3-6.5c-1-2-3.4-3-5.6-1.4C238.1,210.4,237.7,212,237.7,213.8z"/>
	<path class="st1" d="M493.6,215.2c-3.8,0-7.4,0-11.1,0c-0.3,1.4,0.2,2.8,1.3,3.5c1.1,0.7,2.5,1,3.7,0.1c0.1,0,0.2-0.1,0.2-0.1
		c0.7-2.5,2.5-1.4,4-1.3c0.5,0.1,1,0.2,1.6,0.4c-0.8,2.3-2.1,4.1-4.5,4.8c-3,0.8-5.8,0.7-8.4-1.1c-1.7-1.2-2.6-3-2.9-4.9
		c-0.4-2.7-0.4-5.4,1-7.9c1.7-3.2,5.2-4.3,8.3-3.8c4.8,0.7,6.7,4.5,6.8,8.7C493.6,214,493.6,214.5,493.6,215.2z M488.8,212.1
		c-0.2-3.1-2.3-3.8-3.8-3.7c-1.6,0.2-2.9,2-2.6,3.7C484.6,212.1,486.7,212.1,488.8,212.1z"/>
	<path class="st1" d="M373.4,215.2c-4,0-7.8,0-11.5,0c0,2.3,1,3.6,3,4c1.4,0.3,2.6-0.3,3.1-1.6c0.2-0.6,0.5-0.8,1.2-0.6
		c1.3,0.3,2.6,0.5,3.9,0.7c-1.5,4.8-6.1,6.1-10.5,5c-4-1.1-5.2-4.2-5.6-7.3c-0.3-2.3,0-4.6,1.2-6.7c1.7-3.1,4.9-4.3,8.3-3.8
		c4.2,0.6,6.4,3.9,6.6,7.6C373.1,213.3,373.3,214.1,373.4,215.2z M368.3,212.1c0.1-2-1.2-3.6-2.9-3.7c-2-0.1-3.2,1.1-3.5,3.7
		C364,212.1,366.1,212.1,368.3,212.1z"/>
	<path class="st1" d="M160.4,217.6c-0.7,2.3-2.1,3.9-4.2,4.7c-2.3,0.9-4.8,0.9-7.1,0c-2.9-1.1-4.4-3.5-4.7-6.5
		c-0.2-2.1-0.2-4.3,0.6-6.4c1.4-3.6,5.1-5.2,8.7-4.7c5.2,0.8,7.2,5.1,6.7,10.4c-3.7,0-7.3,0-11,0c-0.3,1.8,0.6,3.4,2.3,3.9
		c1.5,0.4,3,0.1,3.7-1.6c0.2-0.6,0.5-0.8,1.2-0.6C157.8,217.3,159,217.4,160.4,217.6z M149.4,212.1c2.2,0,4.3,0,6.5,0
		c-0.1-2.3-1.4-3.7-3.4-3.7C150.7,208.4,149.4,210,149.4,212.1z"/>
	<path class="st1" d="M409.5,217.4c1.7-0.2,3.2-0.5,4.7-0.7c1,2.5,2.9,3.2,5.5,2.4c0.6-0.2,1.2-0.9,1.3-1.5c0.2-0.9-0.8-1-1.4-1.2
		c-2.2-0.7-4.4-1.2-6.6-1.9c-1.7-0.6-2.6-1.9-2.8-3.6c-0.3-2.3,0.5-4.1,2.6-5.2c2-1.1,4.3-1.1,6.5-0.9c1.8,0.2,3.6,0.6,4.8,2.2
		c0.5,0.7,0.9,1.6,1.4,2.4c-1.6,0.3-2.8,0.6-4.1,0.8c-0.2,0-0.7-0.3-0.8-0.6c-0.9-1.5-3.8-2.1-5.2-1c-0.3,0.2-0.6,0.7-0.5,1
		c0,0.3,0.5,0.7,0.9,0.8c2.2,0.7,4.4,1.3,6.6,1.9c2.2,0.6,3.6,2,3.7,4.3c0.1,2.3-0.8,4.1-3,5.1c-3.7,1.7-7.4,1.7-11-0.5
		C410.5,220.4,410,219,409.5,217.4z"/>
	<path class="st1" d="M103.9,222.4c0-3.5,0-6.8,0-10.2c0-0.9-0.2-1.9-0.6-2.6c-0.5-0.9-1.5-1.4-2.6-1.1c-1.3,0.3-2.4,1-2.8,2.4
		c-0.2,0.7-0.2,1.4-0.3,2.2c0,3.1,0,6.2,0,9.4c-1.7,0-3.2,0-4.8,0c0-5.7,0-11.4,0-17.2c1.4,0,2.8,0,4.3,0c0,0.6,0,1.2,0,1.9
		c1-0.6,1.8-1.3,2.7-1.7c2.2-1.1,4.4-0.8,6.5,0.2c1.5,0.8,2.2,2.3,2.2,3.8c0.1,4.3,0,8.6,0,13C107,222.4,105.5,222.4,103.9,222.4z"
		/>
	<path class="st1" d="M209.7,205.2c1.6,0,3.1,0,4.6,0c0,5.7,0,11.4,0,17.2c-1.4,0-2.8,0-4.3,0c0-0.6-0.1-1.2-0.1-1.9
		c-0.7,0.5-1.3,1.1-2,1.6c-2.3,1.4-6.2,1.4-8-0.9c-0.8-1-1.3-2.5-1.3-3.8c-0.2-4-0.1-8-0.1-12.1c1.7,0,3.2,0,4.9,0
		c0,3.3,0,6.6,0,9.9c0,0.7-0.1,1.3,0.1,2c0.2,1,0.9,1.8,1.9,2c1.5,0.3,3.1-0.3,3.6-1.7c0.5-1.3,0.7-2.7,0.7-4
		C209.8,210.7,209.7,208,209.7,205.2z"/>
	<path class="st1" d="M382.4,222.4c-1.6,0-3,0-4.6,0c0-5.7,0-11.4,0-17.2c1.4,0,2.8,0,4.3,0c0,0.6,0,1.2,0,1.9c1-0.7,2-1.4,3-1.9
		c2.3-1,5.6-0.7,7.2,1.5c0.7,0.9,1.2,2.2,1.2,3.3c0.1,4.1,0.1,8.2,0.1,12.4c-1.5,0-3,0-4.7,0c0-0.5,0-1,0-1.5
		c-0.1-3.1-0.2-6.3-0.2-9.4c0-1.5-0.6-2.4-1.8-2.8c-1.3-0.4-2.7,0.1-3.5,1.2c-1,1.3-0.8,2.9-0.9,4.4
		C382.3,216.9,382.4,219.6,382.4,222.4z"/>
	<path class="st1" d="M399.3,208.9c-0.8,0-1.4,0-2,0c0-1.2,0-2.4,0-3.7c0.6,0,1.3,0,2,0c0-0.8,0.1-1.5,0-2.2
		c-0.2-1.1,0.4-1.7,1.3-2.1c1.2-0.6,2.3-1.3,3.6-2.1c0,2.3,0,4.2,0,6.3c1,0,1.9,0,3,0c0,1.3,0,2.4,0,3.8c-0.9,0-1.9,0-3,0
		c0,3.1,0,6,0,9c0,0.8,0.6,1.2,1.4,1.1c0.5-0.1,0.9-0.3,1.5-0.4c0.1,1.3,0.3,2.5,0.4,3.8c-2,0.7-3.9,1-5.9,0.3
		c-1.8-0.6-2.3-1.6-2.4-4.1C399.2,215.3,399.3,212.2,399.3,208.9z"/>
	<path class="st1" d="M140.1,222.5c-1.4,0-2.6,0-3.9,0c-0.2,0-0.4,0-0.6,0c0-7.9,0-15.8,0-23.7c1.5,0,3,0,4.5,0
		C140.1,206.5,140.1,214.4,140.1,222.5z"/>
	<path class="st1" d="M231.3,205.3c-0.6,1.8-1.1,3.1-1.6,4.5c-0.3-0.2-0.5-0.3-0.7-0.4c-2.5-0.9-4.1,0.2-4.2,3.4
		c-0.2,3.2,0,6.3,0,9.6c-1.8,0-3.3,0-4.8,0c0-5.7,0-11.4,0-17.2c1.4,0,2.9,0,4.3,0c0,0.5,0,1,0,1.4c1-0.6,2-1.6,3.2-1.8
		C228.5,204.6,229.9,205.1,231.3,205.3z"/>
	<path class="st1" d="M474.5,209.8c-0.7-0.3-1.3-0.5-1.8-0.6c-2.1-0.4-3.1,1.5-3.2,3.4c-0.1,3.2,0,6.5,0,9.8c-1.8,0-3.3,0-4.8,0
		c0-5.7,0-11.4,0-17.2c1.5,0,2.9,0,4.3,0c0,0.5,0,1,0,1.6c0.8-0.7,1.4-1.4,2.2-1.8c1.4-0.7,2.8-0.3,4.2,0.3c0.2,0.1,0.4,0.5,0.4,0.7
		C475.4,207.3,474.9,208.5,474.5,209.8z"/>
	<path class="st1" d="M87.2,222.4c-1.5,0-3,0-4.5,0c0-5.7,0-11.4,0-17.2c1.5,0,3,0,4.5,0C87.2,210.9,87.2,216.6,87.2,222.4z"/>
	<path class="st1" d="M87.2,203c-1.6,0-3,0-4.5,0c0-1.4,0-2.8,0-4.3c1.5,0,3,0,4.5,0C87.2,200.1,87.2,201.5,87.2,203z"/>
	<path class="st0" d="M451.6,90.6c5.2,18,10.4,35.7,15.5,53.4c-10.2,0-20.4,0-30.6,0C441.5,126.3,446.5,108.6,451.6,90.6z"/>
	<path class="st0" d="M330.5,128.5c0-11.9,0-23.9,0-35.9c0.4,0,0.8,0,1.2,0c4.3,0,8.7,0,13,0c4.3,0,8.6-0.1,12.8,0.3
		c4.6,0.4,8.6,3,9.4,8.2c0.3,2.1,0.5,4.3,0.7,6.4c0.1,1.8,0.3,3.6,0.2,5.4c-0.3,3.4-0.1,6.8-1.4,10.1c-1.1,2.8-2.9,4.4-5.9,4.9
		c-9.9,1.3-19.8,0.4-29.7,0.7C330.8,128.6,330.7,128.6,330.5,128.5z"/>
	<path class="st0" d="M117.8,213.4c0.1-1.6,0.4-3.2,1.7-4.2c2-1.7,4.7-0.7,5.5,1.9c0.7,2.1,0.6,4.1-0.6,6c-0.7,1.2-1.9,1.6-3.1,1.6
		c-1.3-0.1-2.4-1-2.9-2.3C118.2,215.4,118,214.4,117.8,213.4z"/>
	<path class="st0" d="M452.2,212.8c-2.1,0-4,0-6,0c1-2.7,1.9-5.3,3-8.2C450.2,207.5,451.2,210.1,452.2,212.8z"/>
	<path class="st0" d="M270.6,209.5c0-2.4,0-4.5,0-6.8c1.9,0.1,3.8,0.1,5.7,0.4c1.6,0.2,2.5,1.5,2.5,3.1c0,1.5-1,2.7-2.5,2.9
		C274.4,209.3,272.5,209.3,270.6,209.5z"/>
	<path class="st0" d="M298.1,214.4c0.2,2.8-0.3,4.1-2.1,4.8c-1,0.4-2.1,0.5-3-0.4c-1.2-1.1-0.8-2.8,0.7-3.3
		C295.1,215,296.6,214.7,298.1,214.4z"/>
	<path class="st0" d="M507.6,214.4c0,1.6,0.3,3.1-1.1,4.3c-1.2,1-3,1.1-4,0.2c-1.2-1.1-0.8-2.8,0.7-3.3c0.7-0.2,1.5-0.4,2.2-0.5
		C506.1,214.8,506.8,214.6,507.6,214.4z"/>
	<path class="st0" d="M237.7,213.8c0-1.7,0.4-3.3,1.9-4.4c2.2-1.6,4.6-0.6,5.6,1.4c1.1,2.1,1.1,4.4-0.3,6.5
		c-0.9,1.3-2.2,1.9-3.8,1.6c-1.6-0.3-2.6-1.4-3.1-2.9C237.8,215.3,237.8,214.5,237.7,213.8z"/>
	<path class="st0" d="M488.8,212.1c-2.1,0-4.2,0-6.4,0c-0.3-1.7,0.9-3.5,2.6-3.7C486.6,208.3,488.6,209,488.8,212.1z"/>
	<path class="st0" d="M368.3,212.1c-2.2,0-4.3,0-6.4,0c0.3-2.6,1.5-3.8,3.5-3.7C367.1,208.5,368.4,210.2,368.3,212.1z"/>
	<path class="st0" d="M149.4,212.1c0-2.1,1.3-3.7,3-3.7c2,0,3.3,1.4,3.4,3.7C153.7,212.1,151.6,212.1,149.4,212.1z"/>
</g>
</svg>
