<?xml version="1.0" encoding="utf-8"?>
<!-- Generator: Adobe Illustrator 21.1.0, SVG Export Plug-In . SVG Version: 6.00 Build 0)  -->
<svg version="1.1" baseProfile="basic" id="Layer_1"
	 xmlns="http://www.w3.org/2000/svg" xmlns:xlink="http://www.w3.org/1999/xlink" x="0px" y="0px" viewBox="0 0 1280 1024"
	 xml:space="preserve">
<style type="text/css">
	.st0{fill:#A2AEBF;}
	.st1{fill:#FFFFFF;}
</style>
<g>
	<path class="st0" d="M665.3,916c-7.3,0-14.8,0-22.1,0c-0.1-0.1-0.4-0.3-0.6-0.3c-7.6-0.4-15.1-0.7-22.7-1.2
		c-4.5-0.3-9-0.6-13.4-1.2c-6.7-0.9-13.4-1.9-20-3.1c-8.2-1.5-16.6-3.1-24.8-5.1c-14.5-3.3-28.7-7.6-42.6-12.8
		c-11-4.2-21.9-8.7-32.7-13.7c-13.6-6.3-26.6-13.4-39.3-21.2c-11.8-7.3-23.4-15.1-34.3-23.9c-9.1-7.3-18.2-14.9-27-22.7
		c-5.2-4.6-10.2-9.7-14.9-14.8c-6.6-7-13-14-19.3-21.4c-4.2-4.8-8.2-9.7-11.9-14.8c-6.7-9.4-13.6-19-19.9-28.8
		c-5.4-8.4-10.3-17.2-15.1-26c-4.5-8.4-8.4-16.9-12.2-25.5c-3.4-7.9-6.9-16-9.7-24.2c-3.7-10.8-7.2-21.8-10.3-32.7
		c-2.1-7.5-3.7-14.9-5.4-22.5c-1.5-7.6-2.8-15.2-4-22.8c-0.7-4.9-1.2-9.9-1.6-14.9c-0.6-6.6-1.2-13.1-1.5-19.6
		c-0.3-4.3-0.3-8.7-0.4-13c0-0.3-0.3-0.6-0.4-0.7c0-5.2,0-10.6,0-15.8c0.1-0.1,0.3-0.4,0.3-0.6c0.4-8.4,0.7-16.9,1.2-25.2
		c0.3-4.5,0.6-9.1,1.2-13.6c0.9-6.7,1.9-13.4,3.1-20c1.5-8.2,3.1-16.6,5.1-24.8c3.4-15.2,7.9-30.2,13.6-44.6
		c4.5-11.5,9.4-23,14.5-34.3c3.4-7.6,7.6-14.9,11.6-22.2c4-7,8.1-14,12.5-20.9c8.5-13.3,17.8-26,28.1-37.9
		c5.8-6.7,11.5-13.6,17.8-20c9.9-10.3,20-20.2,31.1-29.1c5.7-4.6,11.2-9.6,17.2-13.9c9.3-6.7,18.7-13.1,28.2-19.3
		c10-6.3,20.2-11.9,30.5-17.5c6.1-3.3,12.4-6.1,18.7-8.8c9.7-4,19.6-8.1,29.4-11.6c7.8-2.8,15.7-5.2,23.6-7.5
		c8.2-2.2,16.6-4.5,24.9-6.1c8.5-1.8,17.2-3.1,25.7-4.3c7.3-1,14.6-1.9,21.9-2.7c5.1-0.4,10.3-0.6,15.4-0.9c0.4,0,0.9-0.3,1.3-0.4
		c11.6,0,23.4,0,35.1,0c0.1,0.1,0.4,0.3,0.6,0.3c6.3,0.4,12.5,0.7,19,1.2c4.3,0.3,8.5,0.6,12.8,1.2c5.8,0.7,11.6,1.6,17.5,2.7
		c7.6,1.3,15.4,2.8,22.8,4.5c14.8,3.4,29.3,7.6,43.4,12.8c9.6,3.6,19.3,7.5,28.7,11.5c7.3,3.3,14.5,7,21.8,10.6
		c4.8,2.4,9.4,4.8,13.9,7.6c10.2,6.3,20.2,12.7,30,19.4c8.1,5.5,15.7,11.5,23.3,17.8c6.9,5.5,13.4,11.5,19.9,17.6
		c6.1,5.7,11.8,11.8,17.5,17.9c5.2,5.7,10.5,11.5,15.4,17.3c4,4.6,7.9,9.4,11.5,14.3c5.7,7.9,11.5,16,16.7,24.2
		c5.5,8.5,10.6,17.3,15.5,26.3c3.7,6.6,6.9,13.4,10.2,20.3c2.7,5.8,5.5,11.5,7.8,17.5c3.6,9.3,7,18.7,10.2,28.1
		c2.4,7.3,4.6,14.8,6.6,22.4c1.9,7.2,3.6,14.5,5.1,21.8c1.3,6.1,2.2,12.4,3.3,18.7c0.9,5.7,1.5,11.5,1.9,17.2
		c0.6,6.6,1.2,13.1,1.5,19.9c0.3,4.3,0.3,8.8,0.4,13.1c0,0.3,0.3,0.6,0.4,0.7c0,5.1,0,10.3,0,15.4c-0.1,0.1-0.3,0.4-0.3,0.6
		c-0.4,8.4-0.7,16.9-1.2,25.2c-0.3,4.5-0.6,9.1-1.2,13.6c-0.9,6.7-1.9,13.4-3.1,20c-1.3,7.6-2.7,15.4-4.5,23
		c-3.7,16.1-8.4,32.1-14.5,47.5c-4.2,10.6-8.5,21.2-13.3,31.5c-3.9,8.4-8.4,16.6-12.8,24.8c-4.8,8.4-9.7,16.6-15.1,24.5
		c-6.1,9.1-12.7,17.9-19.4,26.6c-6.3,8.1-13,15.8-19.9,23.4c-4.6,5.2-9.7,10-14.8,14.9c-6,5.7-12.1,11.3-18.4,16.7
		c-5.2,4.5-10.5,9-16,13.1c-8.7,6.4-17.3,12.7-26.3,18.4c-9.6,6.1-19.1,11.9-29.1,17.2c-12.2,6.6-24.8,12.5-37.9,17.6
		c-6.9,2.7-13.6,5.4-20.6,7.8c-7.2,2.4-14.6,4.6-21.9,6.6c-6.1,1.6-12.5,3.1-18.8,4.5c-6.3,1.3-12.5,2.7-19,3.9
		c-4.6,0.9-9.3,1.5-13.7,2.1c-3.9,0.4-7.8,0.9-11.6,1.2c-5.5,0.6-10.9,1.2-16.4,1.5c-4.3,0.3-8.8,0.3-13.1,0.4
		C665.7,915.5,665.6,915.8,665.3,916z M299.2,406.2c-24,76.7-23.9,153.5,0,230.1c236.8,0,473.3,0,710,0c24-76.7,24-153.5,0-230.1
		C772.5,406.2,536,406.2,299.2,406.2z M642.7,275.4c-0.9,0-1.6,0-2.5,0c-41.4,0-82.7,0-124.2,0c-2.7,0-4.3,0.6-5.7,3
		c-4.5,7.9-9.6,15.7-13.9,23.6c-3.7,6.9-7.3,14-10.5,21.2c-4,9.6-7.9,19.1-11.5,28.8c-2.2,6.1-4,12.4-5.8,18.8
		c-1.2,4.5-2.2,9-3.3,13.4c59.1,0,118.1,0,177.2,0C642.7,348,642.7,311.9,642.7,275.4z M664.7,658.5c0,36.4,0,72.6,0,108.8
		c0.9,0,1.6,0,2.5,0c27.6,0,55.2,0,82.9,0c14.3,0,28.7,0,43,0c1.2,0,1.9-0.3,2.5-1.3c5.2-8.8,10.8-17.3,15.5-26.3
		c5.1-9.6,9.7-19.4,13.9-29.4c5.8-13.3,10.2-27.2,14-41.2c0.9-3.4,1.6-7,2.5-10.8C782.3,658.5,723.5,658.5,664.7,658.5z
		 M468.2,658.5c1,3.7,1.9,7.5,2.8,11c2.8,11.6,6.6,23,10.9,34.2c4.8,12.4,10.2,24.6,16.7,36.1c4.9,8.7,10.2,17.3,15.1,26.1
		c0.6,1,1.5,1.5,2.8,1.5c41.4,0,82.7,0,124.2,0c0.7,0,1.3,0,2.1,0c0-36.4,0-72.7,0-108.8C584.5,658.5,526.4,658.5,468.2,658.5z
		 M838,384.4c-0.4-2.5-0.7-4.9-1.5-7.2c-3.3-11-6.6-22.1-10.2-33c-5.1-14.9-11.5-29.4-19.3-43.1c-4.5-8.1-9.3-16-13.9-24
		c-0.7-1.2-1.5-1.6-3-1.6c-41.2,0-82.4,0-123.6,0c-0.7,0-1.3,0-2.1,0c0,36.4,0,72.7,0,109C722.5,384.4,780.2,384.4,838,384.4z
		 M860.4,384.4c46.9,0,93.8,0,140.8,0c-0.6-1.2-1-2.2-1.5-3.3c-4.5-11.5-9.9-22.7-15.5-33.6c-6.9-13.1-14.5-25.8-23-37.9
		c-4.3-6.3-9-12.2-13.6-18.4c-3.1-4.2-6.4-8.2-9.7-12.1c-1.5-1.6-2.5-3.7-5.7-3.7c-37.2,0.1-74.4,0.1-111.5,0.1c-0.7,0-1.5,0-2.7,0
		C838.2,309.6,852.5,345.7,860.4,384.4z M307.2,658.4c3.3,7.3,6.1,14.5,9.4,21.4c4.5,9.3,9.1,18.5,14.3,27.3
		c6.1,10.5,12.8,20.5,19.7,30.5c4.3,6.3,9.1,12.2,13.7,18.2c2.7,3.6,5.8,6.9,8.7,10.3c0.9,1,1.8,1.3,3.3,1.3c36.7,0,73.6,0,110.3,0
		c0.6,0,1.2,0,1.9,0c-0.1-0.4-0.1-0.7-0.3-0.9c-3.6-6.3-7.2-12.5-10.6-19c-6.6-12.4-12.2-25.2-17.2-38.5
		c-5.8-15.7-10.8-31.8-14-48.2c-0.3-1.8-1-2.5-3-2.5c-44.5,0.1-89.1,0-133.6,0C309.2,658.4,308.4,658.4,307.2,658.4z M1001.1,658.5
		c-0.7,0-1,0-1.3,0c-44.8,0-89.4,0-134.2,0c-1.3,0-1.6,0.4-2.1,1.6c-2.5,10-4.9,20-7.9,29.9c-3.4,11.8-7.9,23.3-12.8,34.5
		c-5.7,12.8-11.9,25.5-19.1,37.6c-1,1.6-1.9,3.4-3,5.4c1.2,0,1.9,0,2.7,0c36,0,71.8,0,107.8,0.1c2.7,0,4.2-1.3,5.7-3
		c0.9-1,1.8-2.2,2.7-3.3c4.5-5.5,9.3-11,13.4-16.9c4.3-5.8,8.7-11.8,12.4-17.9c6.4-10.3,12.7-20.8,18.7-31.4
		c3.4-6.1,6.3-12.5,9.3-19C996,670.3,998.5,664.5,1001.1,658.5z M486.3,275.4c-1,0-1.8,0-2.5,0c-35.7,0-71.4,0-106.9,0
		c-1.9,0-3.4,0.3-4.8,2.1c-3.9,5.1-8.4,9.6-12.1,14.8c-6.7,9.1-13.4,18.4-19.6,27.9c-6.1,9.7-11.9,19.6-17.3,29.7
		c-4.5,8.5-8.4,17.5-12.4,26.3c-1.2,2.7-2.2,5.5-3.4,8.5c0.6,0,0.9,0,1.2,0c44.3,0,88.5,0,132.9,0c0.1,0,0.4,0.1,0.6,0
		c0.6-0.4,1.3-0.7,1.5-1.3c0.7-2.7,1-5.4,1.8-8.1c3.3-11.3,6.6-22.7,10.2-33.9c2.2-6.9,5.1-13.6,7.9-20.3c1.9-4.8,4.2-9.6,6.6-14.2
		c3.3-6.6,6.7-13.1,10.2-19.6C481.8,283.2,484,279.5,486.3,275.4z M705.6,152.1c6.6,5.2,13.1,10.3,19.6,15.7
		c7,5.8,13.9,11.8,20.5,18.1c8.5,8.4,16.7,17,24.9,25.7c5.1,5.4,9.9,11,14.5,16.9c6.3,7.9,12.2,16,18.2,24.2c0.7,1,1.3,1.3,2.5,1.3
		c35.5,0,71.2,0,106.8,0c0.4,0,0.9-0.1,1.6-0.1c-39.3-37.8-84.1-65.8-135.1-84.1C755,161.1,730.7,155.2,705.6,152.1z M395,789.2
		c25.1,24.3,52.6,44.3,82.9,60.6c39.1,21.1,80.8,34.8,125.1,40.8c-0.6-0.4-0.9-0.7-1.3-1c-3.4-2.5-6.9-5.1-10.2-7.6
		c-5.5-4.3-10.9-8.8-16.1-13.4c-6.1-5.2-12.4-10.5-18.1-16.1c-8.5-8.5-16.7-17.2-24.9-26c-3.7-4-7.5-8.2-10.9-12.5
		c-6-7.6-11.8-15.4-17.6-23.1c-0.9-1.2-1.6-1.5-2.8-1.5c-34.5,0-69.1,0-103.6,0C396.8,789.2,396.1,789.2,395,789.2z M602.3,151.6
		c-80.3,11.9-149.3,46-208,102c1.2,0,1.8,0,2.5,0c33,0,66.1,0,99.1,0c3.1,0,5.2-0.4,7.3-3.4c5.4-7.6,11.2-14.8,17-21.9
		c4-4.9,8.2-9.7,12.5-14.5c2.4-2.8,4.9-5.7,7.5-8.2c6.6-6.6,13.1-13.1,20-19.6c4.8-4.5,9.9-8.7,14.9-13c4.8-3.9,9.6-7.8,14.3-11.6
		C593.5,158.4,597.6,155.2,602.3,151.6z M706.6,890C786.2,878.5,854.9,844.7,913,789c-0.6,0-1.2,0-1.8,0c-34.3,0-68.7,0-103,0
		c-0.3,0-0.7-0.1-1,0c-0.4,0.1-1,0.4-1.3,0.9c-5.7,7.5-11.2,14.9-17.2,22.2c-5.2,6.4-10.6,12.7-16.1,18.8
		c-4.3,4.9-9.1,9.6-13.7,14.2c-4.3,4.3-8.7,8.7-13.1,12.7c-4.8,4.3-9.7,8.5-14.6,12.7c-3.9,3.3-7.9,6.6-11.9,9.7
		C715.1,883.7,711,886.8,706.6,890z M664.5,891.6c44.6-27.2,82.7-61.1,114.7-102.4c-38.5,0-76.6,0-114.7,0
		C664.5,823.2,664.5,857.3,664.5,891.6z M642.7,151.3C620.5,164.6,600,180,580.9,197c-19.3,17.2-37.2,35.8-52.9,56.6
		c38.4,0,76.4,0,114.7,0C642.7,219.6,642.7,185.7,642.7,151.3z M777,253.6c-31.4-41.2-68.7-75.3-112.4-102.9c0,34.5,0,68.7,0,102.9
		C702,253.6,739.3,253.6,777,253.6z M530,789.2c31.5,40.8,69,74.4,112.6,101.4c0-34,0-67.6,0-101.4
		C605.3,789.2,567.9,789.2,530,789.2z"/>
	<path class="st1" d="M259.3,528.9c0.1,0.3,0.3,0.6,0.4,0.7c0.1,4.3,0.1,8.7,0.4,13c0.4,6.6,0.9,13.1,1.5,19.6
		c0.4,4.9,0.9,10,1.6,14.9c1.2,7.6,2.4,15.2,4,22.8c1.5,7.6,3.3,15.1,5.4,22.5c3.1,11,6.6,21.9,10.3,32.7c2.8,8.2,6.1,16.3,9.7,24.2
		c3.9,8.7,7.8,17.2,12.2,25.5c4.6,8.8,9.7,17.5,15.1,26c6.3,9.9,13,19.4,19.9,28.8c3.7,5.1,7.8,10,11.9,14.8
		c6.3,7.2,12.7,14.3,19.3,21.4c4.8,5.1,9.7,10.2,14.9,14.8c8.8,7.8,17.8,15.2,27,22.7c10.9,8.8,22.4,16.4,34.3,23.9
		c12.7,7.9,25.8,15.1,39.3,21.2c10.8,4.9,21.6,9.6,32.7,13.7c13.9,5.2,28.1,9.6,42.6,12.8c8.2,1.8,16.4,3.4,24.8,5.1
		c6.7,1.2,13.4,2.2,20,3.1c4.5,0.6,9,0.9,13.4,1.2c7.6,0.4,15.1,0.7,22.7,1.2c0.1,0,0.4,0.3,0.6,0.3c-128,0-255.9,0-383.9,0
		C259.3,786.9,259.3,657.9,259.3,528.9z"/>
	<path class="st1" d="M665.3,916c0.3-0.1,0.6-0.3,0.7-0.4c4.3-0.1,8.8-0.1,13.1-0.4c5.5-0.4,11-1,16.4-1.5c3.9-0.4,7.8-0.7,11.6-1.2
		c4.6-0.6,9.3-1.2,13.7-2.1c6.3-1.2,12.7-2.4,19-3.9c6.3-1.3,12.5-2.8,18.8-4.5c7.3-2.1,14.8-4.2,21.9-6.6
		c6.9-2.4,13.7-5.1,20.6-7.8c13-4.9,25.7-11,37.9-17.6c9.9-5.4,19.6-11,29.1-17.2c9-5.8,17.6-12.1,26.3-18.4c5.5-4,10.8-8.5,16-13.1
		c6.3-5.5,12.4-11,18.4-16.7c5.1-4.8,10.2-9.7,14.8-14.9c6.9-7.6,13.6-15.4,19.9-23.4c6.7-8.7,13.3-17.5,19.4-26.6
		c5.4-7.9,10.3-16.3,15.1-24.5c4.6-8.1,9-16.3,12.8-24.8c4.8-10.3,9.1-20.9,13.3-31.5c6.1-15.4,10.6-31.4,14.5-47.5
		c1.8-7.6,3.1-15.2,4.5-23c1.2-6.7,2.2-13.4,3.1-20c0.6-4.5,0.9-9.1,1.2-13.6c0.4-8.4,0.7-16.9,1.2-25.2c0-0.1,0.3-0.4,0.3-0.6
		c0,129,0,258,0,387C921.2,916,793.2,916,665.3,916z"/>
	<path class="st1" d="M1049.1,513.6c-0.1-0.3-0.3-0.6-0.4-0.7c-0.1-4.3-0.1-8.8-0.4-13.1c-0.4-6.6-0.9-13.3-1.5-19.9
		c-0.6-5.7-1.2-11.5-1.9-17.2c-0.9-6.3-1.9-12.5-3.3-18.7c-1.5-7.3-3.1-14.6-5.1-21.8c-1.9-7.5-4.2-14.9-6.6-22.4
		c-3.1-9.4-6.6-18.8-10.2-28.1c-2.2-6-5.1-11.6-7.8-17.5c-3.3-6.9-6.4-13.7-10.2-20.3c-4.9-9-10.2-17.6-15.5-26.3
		c-5.2-8.2-10.9-16.3-16.7-24.2c-3.6-4.9-7.6-9.7-11.5-14.3c-5.1-5.8-10.2-11.8-15.4-17.3c-5.7-6.1-11.5-12.1-17.5-17.9
		c-6.4-6.1-13-11.9-19.9-17.6c-7.6-6.1-15.2-12.1-23.3-17.8c-9.9-6.7-19.9-13.1-30-19.4c-4.5-2.8-9.3-5.2-13.9-7.6
		c-7.2-3.6-14.3-7.5-21.8-10.6c-9.4-4-19-7.9-28.7-11.5c-14.2-5.4-28.7-9.4-43.4-12.8c-7.6-1.8-15.2-3.1-22.8-4.5
		c-5.8-1-11.6-1.9-17.5-2.7c-4.2-0.6-8.5-0.9-12.8-1.2c-6.3-0.4-12.5-0.7-19-1.2c-0.1,0-0.4-0.3-0.6-0.3c125.9,0,251.7,0,377.5,0
		C1049.1,255.6,1049.1,384.6,1049.1,513.6z"/>
	<path class="st1" d="M636.5,126.6c-0.4,0.1-0.9,0.3-1.3,0.4c-5.1,0.3-10.3,0.3-15.4,0.9c-7.3,0.7-14.6,1.6-21.9,2.7
		c-8.7,1.3-17.2,2.7-25.7,4.3c-8.4,1.8-16.7,3.9-24.9,6.1c-7.9,2.2-15.8,4.6-23.6,7.5c-9.9,3.6-19.7,7.6-29.4,11.6
		c-6.4,2.7-12.7,5.5-18.7,8.8c-10.3,5.5-20.6,11.3-30.5,17.5c-9.7,6-19,12.5-28.2,19.3c-6,4.3-11.5,9.3-17.2,13.9
		c-11,9-21.2,19-31.1,29.1c-6.1,6.4-11.9,13.3-17.8,20c-10.3,11.9-19.6,24.8-28.1,37.9c-4.3,6.9-8.5,13.7-12.5,20.9
		c-4,7.3-8.2,14.6-11.6,22.2c-5.1,11.3-10,22.7-14.5,34.3c-5.7,14.5-10.2,29.4-13.6,44.6c-1.8,8.2-3.4,16.4-5.1,24.8
		c-1.2,6.7-2.2,13.4-3.1,20c-0.6,4.5-0.9,9.1-1.2,13.6c-0.4,8.4-0.7,16.9-1.2,25.2c0,0.1-0.3,0.4-0.3,0.6c0-128.9,0-257.7,0-386.6
		C385,126.6,510.7,126.6,636.5,126.6z"/>
	<path class="st1" d="M299.2,406.2c236.8,0,473.3,0,710,0c24,76.7,24,153.3,0,230.1c-236.7,0-473.2,0-710,0
		C275.3,559.7,275.1,483,299.2,406.2z M602.6,445.2c0.7,0,1.5,0,2.1,0c4.3,0,8.7,0,13,0c3.6,0,5.7,1.6,5.1,4.9
		c-0.4,2.7-1.5,5.4-2.7,7.9c-1.6,3.3-3.7,6.1-5.5,9.3c-4.9,8.1-9.9,16.1-14.8,24.2c-5.2,8.5-10.5,17-15.7,25.5
		c-1.9,3.1-3.9,6.1-5.7,9.3c-0.1,0-0.3-0.1-0.3-0.1c0-0.7,0-1.3,0-2.1c0-15.1,0-30.2,0-45.2c0-9.1,0-18.4,0-27.5
		c0-3.3,1.3-5.8,4.9-6c1.6,0,3.4-0.1,5.1-0.4c0.6-0.1,1.2-0.6,1.3-1.2c0.4-2.1,0.9-4.3,1.2-6.4c0.3-1.8,0.6-3.4,0.9-5.4
		c-21.1,0-41.8,0-62.7,0c-0.7,4.3-1.6,8.5-2.4,12.8c1.8,0.1,3.6,0.3,5.2,0.6c4.6,0.6,7.9,3,7.9,8.2c-0.1,4.8,0,9.4,0,14.2
		c0,0.6,0,1.2-0.3,1.6c-5.2,8.7-10.6,17.2-15.8,25.8c-5.7,9.1-11.3,18.2-16.9,27.3c-1.2,1.9-2.4,3.9-3.9,6.3c-0.1-0.6-0.1-0.9-0.1-1
		c0-25.7,0-51.5,0-77.2c0-2.1,1.5-4.3,3.6-4.8c1.9-0.6,4-0.7,6.3-1.2c1-4,2.2-8.2,3.4-12.5c-20.8,0-41.2,0-61.7,0
		c-0.7,4.3-1.5,8.5-2.2,12.7c2.8,0.1,5.2,0.4,7.6,0.6c2.4,0.1,4.3,1.2,4.9,3.4c0.9,2.7,1.6,5.7,1.6,8.5c0.1,49.4,0,98.8,0,148.3
		c0,2.2,1.6,4.6,3.7,5.2c1.6,0.4,3.7-0.4,4.9-2.5c3-4.8,6-9.7,9-14.5c5.5-9,10.9-17.9,16.3-26.9c5.5-9.1,10.9-18.1,16.4-27.2
		c6-9.7,11.8-19.6,17.8-29.3c1.8-3,3.6-5.8,5.5-9.3c0,0.7,0.1,1,0.1,1.3c-0.1,28.4-0.3,56.7-0.4,85.3c0,6.1,0,12.2,0,18.4
		c0,0.7,0.4,1.8,1,2.4c3,3.4,7.2,3.1,9.6-0.7c3.1-4.9,6.1-9.9,9.1-14.8c5.4-8.8,10.6-17.5,16-26.3c5.8-9.7,11.6-19.3,17.5-29
		c5.4-8.8,10.8-17.5,16-26.3c5.5-9,10.9-18.1,16.4-27.2c6.1-10.2,12.1-20.2,18.4-30.3c1.3-2.2,3.1-4.2,4.9-6.1
		c2.5-2.5,6-2.7,9.1-3.1c0.6-0.1,1.5-0.4,1.6-0.9c1-3.9,1.8-7.9,2.7-11.9c-19,0-37.8,0-56.7,0C604.1,436.5,603.3,440.7,602.6,445.2z
		 M303.1,608.4c2.5,0,4.9-0.1,7.3,0c1.6,0.1,2.4-0.4,3.1-1.8c0.4-0.7,1.2-1.5,2.1-1.9c4.5-2.5,9.6-1.9,14.3-2.5s9.4,1,13.7,2.8
		c5.8,2.4,11.9,4.2,18.2,4.6c6,0.3,11.9,0.4,17.8-0.6c8.4-1.5,16-4.2,23.1-8.8c9.4-6.1,16.3-14.3,20.2-24.9
		c3.1-8.7,4.2-17.6,2.8-26.6c-1.5-10-6.6-18.4-13.1-25.8c-3.6-4-7.6-7.9-11.3-11.8c-6.7-7-13.4-14-20-21.4c-3.1-3.4-5.4-7.5-7-11.6
		c-2.1-5.5-2.1-11.2-0.7-16.9c1.3-5.4,4-10.3,9-13.4c4.8-3,10-3.7,15.5-3.6c3.9,0.1,7.3,1.3,10.5,3.6c6.6,4.6,10.2,11.5,12.4,18.8
		c1.6,5.5,2.4,11.3,3.7,16.9c0.1,0.6,0.7,1.3,1.2,1.3c2.5,0.1,5.1,0,7.6,0c5.5-18.8,11-37.3,16.6-56.1c-3.1,0-5.8,0-8.7,0
		c-0.4,0-1.2,0.6-1.3,1c-0.6,2.8-2.8,4.3-5.2,4.8c-4.9,1-9.9,1.2-14.8-0.1c-5.2-1.5-10.3-3.4-15.4-5.5c-9.1-3.7-18.4-4.8-27.9-2.5
		c-13.3,3.1-23.9,10-31.5,21.2c-3.7,5.5-6.3,11.8-7.5,18.5c-1.2,5.8-1.8,11.8-0.7,17.8c1,6.7,3.9,12.8,7.5,18.5
		c4.8,7.6,10.8,14.3,16.9,20.9c1.8,1.9,3.4,4,5.4,6c3.6,3.7,7.3,7.3,11,10.9c3.4,3.3,6.9,6.6,10,10.2c2.5,2.8,3.3,6.6,3.6,10.3
		c0.3,3.4,0.3,7-0.1,10.5c-0.6,4-3.3,7-6.1,9.9c-8.1,7.8-17.3,11.3-28.5,9.6c-6-1-11.3-3.6-15.7-7.9c-6.4-6.3-10-13.7-11-22.7
		c-0.6-5.1-0.3-10,0.7-14.9c0.3-0.9,0.3-1.9,0.4-3.1c-3.3,0-6.3,0-9.4,0C315.3,563.7,309.2,586,303.1,608.4z M847.7,481.2
		c2.8,0,5.4,0,7.8,0c1,0,1.5-0.1,1.6-1.3c3-11.5,6.1-23.1,9.3-34.6c1.2-4.3,2.2-8.5,3.4-12.8c-41.4,0-82.4,0-123.5,0
		c-1,4.3-1.9,8.5-2.8,12.8c3.7,0.3,7.5,0.4,11,0.9c3.3,0.4,6.6,0.9,9.4,3.1c1.3,1,2.4,3.3,1.9,4.9c-1.2,5.1-2.2,10.2-3.4,15.2
		c-2.1,8.2-4.3,16.4-6.6,24.6c-2.7,10-5.4,20-8.1,30c-2.4,8.7-4.6,17.3-6.9,26.1c-2.8,10.6-5.7,21.1-8.5,31.7
		c-1.6,6.1-4.9,10.8-11.2,12.4c-2.5,0.7-5.4,0.9-8.1,1.3c-1.2,4.2-2.2,8.5-3.4,13c25.8,0,51.4,0,77.2,0c1.2-4.3,2.4-8.8,3.7-13.4
		c-1.8,0-3.6,0.1-5.1,0c-3.4-0.3-6.9-0.6-10.2-1.2c-3.1-0.4-4.9-2.5-5.5-5.5c-0.3-1.3,0-3,0.3-4.5c2.4-9.1,4.9-18.1,7.5-27.2
		c1.9-7,3.9-14,6-20.9c1.6-5.5,3.3-11,4.9-16.7c3.7,0.1,7.5,0.3,11.2,0.6c1.8,0.1,3.6,0.7,5.2,1.3c3,1.3,3.3,4,3.4,6.9
		c0.1,4.3,0.3,8.5,0.4,13c3.6,0,7,0,10.6,0c4.3-17.8,8.7-35.7,13-53.6c-2.7-0.4-5.2-0.9-7.8-1.2c-0.9-0.1-1.6,0-2.2,1.2
		c-1.6,4.3-4.2,8.2-7.9,11.2c-6.4,5.1-14,5.7-22.1,5.2c0-0.6,0.1-1,0.1-1.5c1.5-6.1,3-12.2,4.6-18.4c2.2-8.8,4.3-17.8,7.2-26.4
		c1.9-6.1,3.1-7.9,10.6-7.8c5.5,0.1,11,0.1,16.6,0.9c5.4,0.6,10,2.8,12.8,7.6c2.1,3.6,3,7.6,3.3,11.8
		C847.9,473.6,847.7,477.3,847.7,481.2z M863,481.2c2.8,0,5.2-0.1,7.6,0c2.4,0.3,3.4-0.7,3.9-2.8c0-0.3,0.1-0.4,0.1-0.7
		c1.3-4.3,1.9-9.1,4.8-12.7c4.5-6,10-10.5,17.2-12.8c4.8-1.6,9.9-2.1,15.1-2.4c-1.2,4.3-2.4,8.5-3.4,12.7
		c-2.7,9.9-5.2,19.6-7.9,29.4c-2.4,8.5-4.8,17-7,25.4c-2.7,9.9-5.2,19.6-7.9,29.4c-2.4,8.5-4.8,17-7,25.7c-1,3.7-1.6,7.6-2.8,11.3
		c-0.9,3-2.5,5.5-5.2,7.5c-4,3-8.8,3.4-13.6,3.9c-2.4,0.1-4.9,0-7.3,0.1c-0.6,0-1.3,0.6-1.5,1c-1,4-1.8,8.1-2.7,12.2
		c27.2,0,54.3,0,81.5,0c0.9-4.2,1.6-8.2,2.4-12.1c-2.5-0.1-4.9-0.1-7.3-0.6c-4.9-0.9-8.5-6-7.5-10.5c1.5-6.1,3.1-12.2,4.8-18.2
		c3-11.2,6-22.5,9-33.7c2.5-9.9,5.1-19.7,7.6-29.4c3-11.2,6-22.5,9-33.7c1.8-6.9,3.6-13.6,5.4-20.6c3.1,0.3,6.1,0.4,9.1,1
		c4,0.7,8.1,1.9,11,4.9c4,4,5.1,9.1,5.5,14.5c0.3,3.7,0,7.5,0,11.2c3,0,6.1,0,9.4,0c4.3-16.3,8.7-32.4,13.1-48.8c-0.4,0-0.7,0-1,0
		c-39.7,0-79.4,0-119,0c-1.2,0-1.6,0.4-1.9,1.5c-2.7,10.2-5.5,20.2-8.4,30.3C866.2,469.7,864.6,475.2,863,481.2z M688.9,594.9
		c-1.6,0-3,0.1-4.3,0c-1.6-0.1-3.3-0.4-4.9-0.7c-1.6-0.4-2.4-1.5-2.5-3.3c-0.1-3,0.7-5.7,1.6-8.5c2.5-8.4,4.8-16.7,7.2-25.2
		c4.3-16,8.5-31.8,12.8-47.8c2.4-9.1,4.9-18.2,7.3-27.3c2.4-8.8,4.9-17.6,7.5-26.3c1.3-4.8,4.6-7.8,9.4-8.7c4-0.7,8.1-1.2,12.1-1.5
		c1.3-0.1,2.1-0.4,2.2-1.9c0.7-3.7,1.6-7.3,2.5-11.2c-0.9,0-1.5,0-2.2,0c-22.7,0-45.5,0-68.2,0c-0.4,0-0.9-0.1-1.2,0
		c-0.6,0.3-1.3,0.6-1.5,1c-0.7,3.9-1.3,7.8-1.9,11.5c2.1,0.4,4.2,0.6,6.1,1.2c3.7,1,5.1,3.9,4.2,7.6c-1.6,6-3.3,12.1-4.8,18.1
		c-2.2,8.2-4.3,16.4-6.6,24.6c-2.5,9.4-5.1,18.8-7.6,28.2c-2.4,8.7-4.6,17.3-6.9,26.1c-2.7,10-5.7,20-8.1,30.2
		c-1.5,6.6-5.2,10.6-11.5,12.4c-3.9,1.2-7.8,1.8-11.9,1.6c-1.5-0.1-2.5,0.1-2.4,2.1c0,0.9-0.3,1.8-0.4,2.7c-0.4,2.8-1,5.7-1.5,8.8
		c1,0,1.8,0,2.5,0c21.8,0,43.6,0,65.4,0c4.8,0,4.8,0,6-4.6C687.5,600.9,688.1,598.1,688.9,594.9z M709,596.1c0-0.6,0-1.3,0-1.9
		c-0.1-3.1-2.4-6.6-4.8-7.6c-3.7-1.6-7.6,0.9-9.4,3.1c-3.3,4.3-4.8,9-4,14.3c0.4,3,1.6,5.8,4.6,7c3.1,1.2,6,0.3,8.4-2.1
		C707.5,605.4,709,601.1,709,596.1z M935.7,602.6c0.1,0.7,0.1,2.1,0.4,3.6c0.7,2.5,2.1,4.8,4.6,5.7c2.8,1,7.2-0.7,9.1-3.3
		c3.3-4.3,4.6-9.3,4-14.6c-0.4-3-1.8-5.7-4.6-6.9c-3-1.2-5.8-0.3-8.2,1.9C937.3,592.6,935.8,596.9,935.7,602.6z M568.7,601.5
		c0.3,1.8,0.4,3.6,1.2,5.2c2.1,5.4,7.3,6.3,11.3,3c5.7-4.6,7-10.9,5.5-17.9c-0.6-2.5-2.1-4.8-4.8-5.5c-3.4-1-6.6,0.3-8.7,3
		C570.3,592.8,568.5,596.7,568.7,601.5z M431.3,586.6c-2.5,0-4.8,0.9-6.1,2.5c-3.4,4.2-5.1,9-4.8,14.3c0.1,3,0.7,6,3.4,7.6
		c3.1,1.9,6.3,1.3,9.3-1.5c4.6-4.6,6.3-10.3,4.9-16.7C437.3,589.3,434.7,586.1,431.3,586.6z M795.5,602.7c0.3,1,0.6,3.3,1.3,5.4
		c1.3,3.4,5.4,4.3,8.4,2.8c7.3-3.4,10.3-14.5,7.2-21.2c-0.4-0.9-1-1.8-1.8-2.4c-2.8-2.4-6.7-1.5-9.1,0.6
		C797.4,591.7,795.8,596.3,795.5,602.7z"/>
	<path class="st1" d="M642.7,275.4c0,36.4,0,72.6,0,108.8c-59.1,0-118.1,0-177.2,0c1-4.6,2.1-9.1,3.3-13.4
		c1.8-6.3,3.6-12.7,5.8-18.8c3.6-9.7,7.3-19.4,11.5-28.8c3.1-7.2,6.6-14.3,10.5-21.2c4.3-8.1,9.4-15.7,13.9-23.6c1.3-2.5,3-3,5.7-3
		c41.4,0.1,82.7,0,124.2,0C640.9,275.4,641.7,275.4,642.7,275.4z"/>
	<path class="st1" d="M664.7,658.5c59,0,117.8,0,176.8,0c-0.9,3.6-1.5,7.2-2.5,10.8c-3.9,14-8.2,27.9-14,41.2
		c-4.3,10-9,19.9-13.9,29.4c-4.8,9-10.3,17.5-15.5,26.3c-0.6,1-1.3,1.3-2.5,1.3c-14.3,0-28.7,0-43,0c-27.6,0-55.2,0-82.9,0
		c-0.7,0-1.5,0-2.5,0C664.7,731.1,664.7,695,664.7,658.5z"/>
	<path class="st1" d="M468.2,658.5c58.2,0,116.3,0,174.5,0c0,36.3,0,72.4,0,108.8c-0.6,0-1.3,0-2.1,0c-41.4,0-82.7,0-124.2,0
		c-1.3,0-2.2-0.4-2.8-1.5c-5.1-8.7-10.2-17.3-15.1-26.1c-6.6-11.5-11.8-23.7-16.7-36.1c-4.3-11.2-8.1-22.5-10.9-34.2
		C470.1,666,469.1,662.3,468.2,658.5z"/>
	<path class="st1" d="M838,384.4c-57.9,0-115.6,0-173.5,0c0-36.3,0-72.4,0-109c0.7,0,1.3,0,2.1,0c41.2,0,82.4,0,123.6,0
		c1.3,0,2.2,0.4,3,1.6c4.6,8.1,9.4,16,13.9,24c7.6,13.9,14.2,28.2,19.3,43.1c3.6,10.9,6.9,21.9,10.2,33
		C837.3,379.5,837.6,381.9,838,384.4z"/>
	<path class="st1" d="M860.4,384.4c-7.9-38.7-22.2-74.8-42.6-109c1.2,0,1.9,0,2.7,0c37.2,0,74.4,0,111.5-0.1c3.1,0,4.2,1.9,5.7,3.7
		c3.4,3.9,6.6,7.9,9.7,12.1c4.6,6.1,9.3,12.1,13.6,18.4c8.5,12.1,16.1,24.9,23,37.9c5.8,10.9,11,22.1,15.5,33.6
		c0.4,1,0.9,2.1,1.5,3.3C954.2,384.4,907.4,384.4,860.4,384.4z"/>
	<path class="st1" d="M307.2,658.4c1.2,0,1.9,0,2.5,0c44.5,0,89.1,0,133.6,0c2.1,0,2.7,0.7,3,2.5c3.3,16.4,8.2,32.5,14,48.2
		c4.9,13.1,10.6,26,17.2,38.5c3.3,6.4,7,12.5,10.6,19c0.1,0.1,0.1,0.4,0.3,0.9c-0.7,0-1.3,0-1.9,0c-36.7,0-73.6,0-110.3,0
		c-1.3,0-2.4-0.3-3.3-1.3c-2.8-3.4-5.8-6.7-8.7-10.3c-4.6-6-9.6-11.9-13.7-18.2c-6.9-10-13.6-20.2-19.7-30.5
		c-5.2-8.8-9.7-18.1-14.3-27.3C313.4,673,310.5,665.9,307.2,658.4z"/>
	<path class="st1" d="M1001.1,658.5c-2.7,6-5.1,11.8-7.8,17.5c-3,6.4-5.8,12.8-9.3,19c-6,10.6-12.2,21.1-18.7,31.4
		c-3.9,6.1-8.1,12.1-12.4,17.9c-4.3,5.8-9,11.2-13.4,16.9c-0.9,1-1.6,2.2-2.7,3.3c-1.5,1.8-3,3-5.7,3c-36-0.1-71.8-0.1-107.8-0.1
		c-0.7,0-1.5,0-2.7,0c1-1.9,2.1-3.7,3-5.4c7.2-12.1,13.4-24.6,19.1-37.6c4.9-11.3,9.4-22.7,12.8-34.5c2.8-9.9,5.4-19.9,7.9-29.9
		c0.3-1.2,0.7-1.6,2.1-1.6c44.8,0,89.4,0,134.2,0C1000,658.4,1000.3,658.5,1001.1,658.5z"/>
	<path class="st1" d="M486.3,275.4c-2.2,4-4.5,7.8-6.4,11.5c-3.4,6.4-6.9,13-10.2,19.6c-2.4,4.6-4.5,9.4-6.6,14.2
		c-2.8,6.7-5.7,13.4-7.9,20.3c-3.6,11.2-6.9,22.5-10.2,33.9c-0.7,2.7-1.2,5.4-1.8,8.1c-0.1,0.6-0.9,0.9-1.5,1.3
		c-0.1,0.1-0.4,0-0.6,0c-44.3,0-88.5,0-132.9,0c-0.3,0-0.6,0-1.2,0c1.2-3,2.2-5.7,3.4-8.5c4-8.8,7.9-17.8,12.4-26.3
		c5.4-10.2,11-20,17.3-29.7c6.1-9.6,12.8-18.7,19.6-27.9c3.7-5.1,8.2-9.7,12.1-14.8c1.3-1.8,2.8-2.1,4.8-2.1c35.7,0,71.4,0,106.9,0
		C484.5,275.4,485.2,275.4,486.3,275.4z"/>
	<path class="st1" d="M705.6,152.1c25.1,3.1,49.4,9.1,73.3,17.5c51.1,18.2,96,46.3,135.1,84.1c-0.6,0-1,0.1-1.6,0.1
		c-35.5,0-71.2,0-106.8,0c-1.2,0-1.8-0.3-2.5-1.3c-6-8.1-11.9-16.3-18.2-24.2c-4.6-5.8-9.4-11.5-14.5-16.9
		c-8.2-8.7-16.4-17.3-24.9-25.7c-6.6-6.4-13.4-12.2-20.5-18.1C718.7,162.2,712,157.2,705.6,152.1z"/>
	<path class="st1" d="M395,789.2c1.2,0,1.8,0,2.4,0c34.5,0,69.1,0,103.6,0c1.2,0,2.1,0.3,2.8,1.5c5.8,7.8,11.5,15.5,17.6,23.1
		c3.4,4.3,7.2,8.5,10.9,12.5c8.2,8.8,16.4,17.5,24.9,26c5.7,5.7,11.9,10.9,18.1,16.1c5.2,4.6,10.8,9,16.1,13.4
		c3.3,2.7,6.9,5.1,10.2,7.6c0.4,0.3,0.7,0.6,1.3,1c-44.3-6.1-86-19.9-125.1-40.8C447.6,833.5,420,813.4,395,789.2z"/>
	<path class="st1" d="M602.3,151.6c-4.6,3.6-8.8,6.7-13,10c-4.8,3.9-9.6,7.6-14.3,11.6c-5.1,4.2-10,8.5-14.9,13
		c-6.9,6.4-13.4,13-20,19.6c-2.7,2.7-5.1,5.5-7.5,8.2c-4.2,4.8-8.5,9.6-12.5,14.5c-5.8,7.2-11.6,14.3-17,21.9
		c-2.1,3-4.2,3.4-7.3,3.4c-33-0.1-66.1,0-99.1,0c-0.7,0-1.3,0-2.5,0C453,197.6,521.9,163.7,602.3,151.6z"/>
	<path class="st1" d="M706.6,890c4.2-3.3,8.5-6.4,12.7-9.7c4-3.1,7.9-6.4,11.9-9.7c4.9-4.2,9.9-8.4,14.6-12.7
		c4.5-4.2,8.8-8.4,13.1-12.7c4.6-4.6,9.3-9.3,13.7-14.2c5.5-6.1,10.9-12.4,16.1-18.8c5.8-7.3,11.3-14.9,17.2-22.2
		c0.3-0.4,0.9-0.6,1.3-0.9c0.3-0.1,0.6,0,1,0c34.3,0,68.7,0,103,0c0.6,0,1.2,0,1.8,0C854.9,844.9,786.2,878.6,706.6,890z"/>
	<path class="st1" d="M664.5,891.6c0-34.3,0-68.4,0-102.4c38.1,0,76.1,0,114.7,0C747.2,830.5,709.2,864.4,664.5,891.6z"/>
	<path class="st1" d="M642.7,151.3c0,34.3,0,68.2,0,102.3c-38.2,0-76.3,0-114.7,0c15.7-20.8,33.6-39.3,52.9-56.6
		C599.9,180,620.3,164.6,642.7,151.3z"/>
	<path class="st1" d="M777,253.6c-37.6,0-75,0-112.4,0c0-34.2,0-68.4,0-102.9C708.3,178.4,745.7,212.4,777,253.6z"/>
	<path class="st1" d="M530,789.2c37.8,0,75.1,0,112.6,0c0,33.7,0,67.3,0,101.4C599,863.7,561.5,830,530,789.2z"/>
	<path class="st0" d="M602.6,445.2c0.9-4.5,1.6-8.7,2.4-13c19,0,37.8,0,56.7,0c-0.9,4-1.8,8.1-2.7,11.9c-0.1,0.4-1,0.9-1.6,0.9
		c-3.3,0.6-6.7,0.6-9.1,3.1c-1.8,1.9-3.6,3.9-4.9,6.1c-6.1,10-12.2,20.2-18.4,30.3c-5.5,9.1-10.9,18.1-16.4,27.2
		c-5.4,8.8-10.8,17.5-16,26.3c-5.8,9.7-11.6,19.3-17.5,29c-5.4,8.8-10.6,17.5-16,26.3c-3,4.9-6,10-9.1,14.8
		c-2.5,3.9-6.6,4.2-9.6,0.7c-0.6-0.6-0.9-1.6-1-2.4c-0.1-6.1,0-12.2,0-18.4c0.1-28.4,0.3-56.7,0.4-85.3c0-0.3,0-0.4-0.1-1.3
		c-2.1,3.4-3.7,6.3-5.5,9.3c-6,9.7-11.8,19.6-17.8,29.3c-5.5,9.1-10.9,18.1-16.4,27.2c-5.4,9-10.9,17.9-16.3,26.9
		c-3,4.8-6,9.7-9,14.5c-1.3,2.1-3.3,3-4.9,2.5c-2.1-0.6-3.7-3-3.7-5.2c0-49.4,0-98.8,0-148.3c0-2.8-0.7-5.7-1.6-8.5
		c-0.7-2.1-2.5-3.3-4.9-3.4c-2.4-0.1-4.8-0.3-7.6-0.6c0.7-4.2,1.5-8.4,2.2-12.7c20.3,0,40.8,0,61.7,0c-1.2,4.3-2.2,8.5-3.4,12.5
		c-2.2,0.4-4.2,0.6-6.3,1.2c-2.1,0.6-3.6,2.7-3.6,4.8c0,25.7,0,51.5,0,77.2c0,0.1,0,0.3,0.1,1c1.3-2.2,2.5-4.3,3.9-6.3
		c5.7-9.1,11.3-18.2,16.9-27.3c5.4-8.7,10.6-17.2,15.8-25.8c0.3-0.4,0.3-1,0.3-1.6c0-4.8-0.1-9.4,0-14.2c0.1-5.4-3.1-7.8-7.9-8.2
		c-1.6-0.1-3.3-0.3-5.2-0.6c0.7-4.3,1.6-8.5,2.4-12.8c20.9,0,41.8,0,62.7,0c-0.3,1.8-0.6,3.6-0.9,5.4c-0.3,2.1-0.7,4.3-1.2,6.4
		c-0.1,0.4-0.9,1-1.3,1.2c-1.6,0.3-3.3,0.3-5.1,0.4c-3.6,0.1-4.9,2.7-4.9,6c0,9.1,0,18.4,0,27.5c0,15.1,0,30.2,0,45.2
		c0,0.7,0,1.3,0,2.1c0.1,0,0.3,0.1,0.3,0.1c1.9-3.1,3.9-6.1,5.7-9.3c5.2-8.5,10.5-17,15.7-25.5c4.9-8.1,9.9-16.1,14.8-24.2
		c1.9-3.1,4-6,5.5-9.3c1.2-2.5,2.2-5.2,2.7-7.9c0.4-3.3-1.5-4.9-5.1-4.9c-4.3,0-8.7,0-13,0C603.9,445.2,603.3,445.2,602.6,445.2z"/>
	<path class="st0" d="M303.1,608.4c6.1-22.4,12.2-44.5,18.4-66.6c3.1,0,6.1,0,9.4,0c-0.1,1-0.3,2.1-0.4,3.1
		c-1.2,4.9-1.3,9.9-0.7,14.9c0.9,9,4.5,16.4,11,22.7c4.3,4.2,9.7,6.9,15.7,7.9c11.2,1.9,20.6-1.6,28.5-9.6c2.8-2.8,5.5-5.8,6.1-9.9
		c0.4-3.4,0.4-7,0.1-10.5c-0.3-3.6-1-7.5-3.6-10.3c-3.1-3.6-6.7-6.7-10-10.2c-3.7-3.6-7.5-7.2-11-10.9c-1.9-1.9-3.4-4-5.4-6
		c-6.1-6.6-12.1-13.3-16.9-20.9c-3.6-5.7-6.4-11.8-7.5-18.5c-1-6-0.3-11.9,0.7-17.8c1.3-6.6,3.7-12.8,7.5-18.5
		c7.6-11.2,18.4-18.2,31.5-21.2c9.6-2.2,18.8-1.2,27.9,2.5c5.1,2.1,10.2,4,15.4,5.5c4.8,1.3,9.9,1.2,14.8,0.1
		c2.4-0.4,4.5-1.9,5.2-4.8c0.1-0.4,0.9-0.9,1.3-1c2.7-0.1,5.5,0,8.7,0c-5.5,18.8-11,37.3-16.6,56.1c-2.4,0-5.1,0-7.6,0
		c-0.4,0-1.2-0.7-1.2-1.3c-1.2-5.7-2.1-11.5-3.7-16.9c-2.2-7.3-5.8-14.2-12.4-18.8c-3.1-2.2-6.6-3.4-10.5-3.6
		c-5.5-0.3-10.8,0.4-15.5,3.6c-4.9,3.1-7.5,8.1-9,13.4c-1.5,5.7-1.5,11.3,0.7,16.9c1.6,4.3,4,8.4,7,11.6c6.6,7.2,13.3,14.2,20,21.4
		c3.7,4,7.8,7.8,11.3,11.8c6.6,7.5,11.6,15.8,13.1,25.8c1.3,9.1,0.3,18.1-2.8,26.6c-3.9,10.6-10.8,18.8-20.2,24.9
		c-7,4.6-14.8,7.3-23.1,8.8c-6,1-11.9,1-17.8,0.6c-6.3-0.4-12.4-2.1-18.2-4.6c-4.3-1.8-9-3.4-13.7-2.8c-4.8,0.6-9.9,0-14.3,2.5
		c-0.7,0.4-1.6,1.2-2.1,1.9c-0.7,1.3-1.5,1.9-3.1,1.8C308,608.2,305.6,608.4,303.1,608.4z"/>
	<path class="st0" d="M847.7,481.2c0-3.9,0.1-7.6,0-11.2c-0.1-4.2-1-8.2-3.3-11.8c-2.8-4.8-7.6-7-12.8-7.6c-5.5-0.6-11-0.7-16.6-0.9
		c-7.5-0.1-8.7,1.6-10.6,7.8c-2.8,8.7-4.9,17.6-7.2,26.4c-1.6,6.1-3.1,12.2-4.6,18.4c-0.1,0.4-0.1,0.9-0.1,1.5
		c7.9,0.4,15.5-0.1,22.1-5.2c3.7-3,6.1-6.9,7.9-11.2c0.4-1.3,1.2-1.3,2.2-1.2c2.5,0.3,5.1,0.7,7.8,1.2c-4.3,17.9-8.7,35.7-13,53.6
		c-3.6,0-7,0-10.6,0c-0.1-4.3-0.3-8.7-0.4-13c-0.1-2.8-0.6-5.5-3.4-6.9c-1.6-0.7-3.4-1.2-5.2-1.3c-3.7-0.3-7.5-0.4-11.2-0.6
		c-1.6,5.7-3.4,11.2-4.9,16.7c-2.1,7-4,13.9-6,20.9c-2.5,9.1-4.9,18.1-7.5,27.2c-0.4,1.5-0.6,3-0.3,4.5c0.6,3,2.4,4.9,5.5,5.5
		c3.4,0.6,6.7,0.9,10.2,1.2c1.6,0.1,3.3,0,5.1,0c-1.2,4.6-2.5,9-3.7,13.4c-25.8,0-51.4,0-77.2,0c1.2-4.5,2.4-8.8,3.4-13
		c2.7-0.4,5.5-0.6,8.1-1.3c6.4-1.6,9.6-6.3,11.2-12.4c2.8-10.6,5.7-21.1,8.5-31.7c2.4-8.7,4.6-17.3,6.9-26.1c2.7-10,5.4-20,8.1-30
		c2.2-8.2,4.5-16.4,6.6-24.6c1.3-5.1,2.4-10.2,3.4-15.2c0.4-1.6-0.6-3.9-1.9-4.9c-2.8-2.1-6.1-2.7-9.4-3.1c-3.6-0.4-7.3-0.6-11-0.9
		c0.9-4.3,1.9-8.5,2.8-12.8c41.1,0,82.1,0,123.5,0c-1.2,4.3-2.4,8.7-3.4,12.8c-3.1,11.5-6.3,23.1-9.3,34.6c-0.3,1.2-0.7,1.3-1.6,1.3
		C853,481.2,850.6,481.2,847.7,481.2z"/>
	<path class="st0" d="M863,481.2c1.6-6,3.3-11.5,4.8-17.2c2.8-10.2,5.7-20.2,8.4-30.3c0.3-1.2,0.7-1.5,1.9-1.5c39.7,0,79.4,0,119,0
		c0.3,0,0.4,0,1,0c-4.3,16.3-8.8,32.5-13.1,48.8c-3.3,0-6.4,0-9.4,0c0-3.7,0.1-7.5,0-11.2c-0.3-5.4-1.3-10.6-5.5-14.5
		c-3.1-3-7-4.2-11-4.9c-3-0.6-6.1-0.7-9.1-1c-1.8,7-3.6,13.9-5.4,20.6c-3,11.2-6,22.5-9,33.7c-2.5,9.9-5.1,19.7-7.6,29.4
		c-3,11.2-6,22.5-9,33.7c-1.6,6.1-3.3,12.2-4.8,18.2c-1,4.3,2.5,9.6,7.5,10.5c2.4,0.4,4.8,0.3,7.3,0.6c-0.7,3.7-1.5,7.9-2.4,12.1
		c-27.2,0-54.2,0-81.5,0c0.9-4.2,1.8-8.2,2.7-12.2c0.1-0.4,0.9-1,1.5-1c2.4-0.1,4.9,0.1,7.3-0.1c4.8-0.4,9.4-0.9,13.6-3.9
		c2.7-1.9,4.3-4.5,5.2-7.5c1-3.7,1.8-7.6,2.8-11.3c2.2-8.5,4.8-17,7-25.7c2.7-9.9,5.2-19.6,7.9-29.4c2.4-8.5,4.6-17,7-25.4
		c2.7-9.9,5.4-19.6,7.9-29.4c1.2-4.2,2.2-8.4,3.4-12.7c-5.2,0.3-10.3,0.7-15.1,2.4c-7.2,2.5-12.7,7-17.2,12.8
		c-2.8,3.7-3.4,8.4-4.8,12.7c0,0.3-0.1,0.4-0.1,0.7c-0.3,2.2-1.5,3.1-3.9,2.8C868.2,481,865.6,481.2,863,481.2z"/>
	<path class="st0" d="M688.9,594.9c-0.6,3.1-1.2,6-1.9,8.8c-1.2,4.6-1.2,4.6-6,4.6c-21.8,0-43.6,0-65.4,0c-0.7,0-1.5,0-2.5,0
		c0.6-3.1,1-6,1.5-8.8c0.1-0.9,0.6-1.8,0.4-2.7c-0.1-1.9,0.9-2.1,2.4-2.1c4,0.3,8.1-0.4,11.9-1.6c6.3-1.9,10-5.8,11.5-12.4
		c2.4-10.2,5.4-20.2,8.1-30.2c2.4-8.7,4.6-17.3,6.9-26.1c2.5-9.4,5.1-18.8,7.6-28.2c2.2-8.2,4.3-16.4,6.6-24.6
		c1.6-6,3.3-12.1,4.8-18.1c1-3.7-0.4-6.6-4.2-7.6c-1.9-0.6-4-0.7-6.1-1.2c0.6-3.7,1.2-7.6,1.9-11.5c0.1-0.4,0.9-0.9,1.5-1
		c0.3-0.1,0.7,0,1.2,0c22.7,0,45.5,0,68.2,0c0.7,0,1.5,0,2.2,0c-0.9,3.9-1.8,7.5-2.5,11.2c-0.3,1.5-0.9,1.8-2.2,1.9
		c-4,0.3-8.1,0.7-12.1,1.5c-4.8,0.9-8.1,4-9.4,8.7c-2.5,8.8-5.1,17.5-7.5,26.3c-2.5,9.1-4.9,18.2-7.3,27.3c-4.3,16-8.5,32-12.8,47.8
		c-2.2,8.4-4.6,16.9-7.2,25.2c-0.9,2.8-1.8,5.5-1.6,8.5c0.1,1.8,0.9,2.8,2.5,3.3c1.6,0.4,3.3,0.6,4.9,0.7
		C685.7,594.9,687.1,594.9,688.9,594.9z"/>
	<path class="st0" d="M709,596.1c0,4.9-1.6,9.4-5.2,12.8c-2.4,2.4-5.2,3.3-8.4,2.1c-3-1.2-4.2-4-4.6-7c-0.7-5.4,0.7-10.2,4-14.3
		c1.6-2.2,5.7-4.6,9.4-3.1c2.4,1,4.8,4.5,4.8,7.6C709.2,594.8,709,595.4,709,596.1z"/>
	<path class="st0" d="M935.7,602.6c0-5.7,1.6-10.2,5.4-13.6c2.4-2.2,5.1-3.1,8.2-1.9c3,1.2,4.3,3.9,4.6,6.9c0.7,5.4-0.7,10.3-4,14.6
		c-1.9,2.5-6.1,4.3-9.1,3.3c-2.5-0.9-3.9-3.1-4.6-5.7C935.8,604.8,935.8,603.3,935.7,602.6z"/>
	<path class="st0" d="M568.7,601.5c-0.1-4.8,1.8-8.7,4.6-12.2c2.2-2.7,5.2-4,8.7-3c2.5,0.7,4.2,3,4.8,5.5c1.5,6.9,0,13.3-5.5,17.9
		c-3.9,3.3-9.3,2.4-11.3-3C569.1,605.1,569,603.3,568.7,601.5z"/>
	<path class="st0" d="M431.3,586.6c3.3-0.4,6,2.7,6.7,6.3c1.3,6.4-0.3,12.1-4.9,16.7c-3,3-6.1,3.4-9.3,1.5c-2.7-1.6-3.3-4.6-3.4-7.6
		c-0.3-5.4,1.3-10.2,4.8-14.3C426.5,587.5,428.9,586.6,431.3,586.6z"/>
	<path class="st0" d="M795.5,602.7c0.3-6.4,1.9-11,6-14.6c2.4-2.1,6.3-3.1,9.1-0.6c0.7,0.6,1.3,1.5,1.8,2.4c1.2,2.5,1.3,4.9,1.2,6.7
		c-0.1,4.2-1.6,7.2-1.9,7.8c-1.3,2.7-3,5.8-6.4,6.7c-2.8,0.7-7.2,0.3-8.4-2.8C796.1,606,795.8,603.7,795.5,602.7z"/>
</g>
</svg>
